<svg width="160" height="61" viewBox="0 0 160 61" fill="none" xmlns="http://www.w3.org/2000/svg">
<circle cx="40.5563" cy="21.3072" r="15.2619" transform="rotate(3.73513 40.5563 21.3072)" fill="#909CB9"/>
<path d="M1.95113 39.6565L33.3466 13.2248L34.5589 16.562L1.95113 39.6565Z" fill="#909CB9"/>
<path d="M3.32704 49.3991L34.7639 23.0813L35.8934 26.1907L3.32704 49.3991Z" fill="#909CB9"/>
<path d="M8.80005 55.9155L40.31 29.7987L41.2934 32.506L8.80005 55.9155Z" fill="#909CB9"/>
<path d="M16.6579 56.5531L48.1987 30.5213L49.1204 33.0587L16.6579 56.5531Z" fill="#909CB9"/>
<path d="M10.5158 49.5566L36.3606 27.6081L36.9196 29.2265L10.5158 49.5566Z" fill="#909CB9"/>
<path d="M7.65942 40.5909L33.4967 18.6205L34.0708 20.2826L7.65942 40.5909Z" fill="#909CB9"/>
<path d="M8.83202 31.2931L34.8035 9.71142L35.1092 10.5962L8.83202 31.2931Z" fill="#909CB9"/>
<path d="M21.0918 50.2289L43.9347 31.1788L44.2403 32.0636L21.0918 50.2289Z" fill="#909CB9"/>
<path d="M4.95006 31.3359L31.3044 9.58928L32.072 11.7023L4.95006 31.3359Z" fill="#909CB9"/>
<g clip-path="url(#clip0_1_388)">
<path d="M28.9229 26.4083L28.9263 26.4153L28.9294 26.4223C28.9513 26.4721 28.976 26.5214 29.0054 26.5801C29.0119 26.5931 29.0187 26.6065 29.0257 26.6205C29.0579 26.6852 29.1035 26.7718 29.1452 26.8487L29.1453 26.8487L29.1488 26.8554C29.3235 27.1918 29.512 27.5176 29.7144 27.8301L29.9704 28.2027L29.9704 28.2027L29.9725 28.2058C30.4537 28.92 30.999 29.5888 31.6016 30.2041C31.6019 30.2044 31.6023 30.2048 31.6026 30.2052L31.6457 30.2484L31.6466 30.2493C33.526 32.1506 35.8966 33.4923 38.4941 34.1248C41.0916 34.7573 43.8137 34.6556 46.3568 33.8313L46.3568 33.8312L46.3617 33.8297C46.7919 33.696 47.2149 33.5401 47.629 33.3627L47.6298 33.3624C47.8429 33.2716 48.054 33.1702 48.2732 33.065C48.3205 33.0422 48.3682 33.0193 48.4164 32.9963C48.9589 32.7211 49.4837 32.4126 49.988 32.0725C50.0604 32.019 50.1313 31.9673 50.2008 31.9166C50.4569 31.7297 50.6936 31.557 50.9149 31.3628L50.9206 31.3578L50.9264 31.3531L51.0571 31.2463C51.0573 31.2462 51.0574 31.246 51.0576 31.2459C53.5125 29.2256 55.2306 26.4503 55.9444 23.3521C56.6582 20.2536 56.3275 17.0061 55.0037 14.1152L55.0037 14.1152L55.0018 14.111C54.9299 13.9492 54.8517 13.7912 54.7647 13.6282L54.7647 13.6282L54.7614 13.6219C54.6413 13.3875 54.5158 13.1559 54.3873 12.9329C54.2168 12.6433 54.0395 12.3556 53.8466 12.0682L53.8466 12.0682L53.8444 12.0648L53.7436 11.9115C53.7398 11.906 53.736 11.9004 53.7323 11.895C53.6586 11.788 53.593 11.6927 53.5209 11.5974L53.5208 11.5975L53.5161 11.5909C53.2924 11.2833 53.0583 10.9872 52.8134 10.7077L52.0712 9.91886L51.937 9.78326C51.7301 9.58287 51.5224 9.39293 51.3077 9.21459L51.3021 9.2099L51.2966 9.20502L51.1909 9.11084C48.6682 6.98283 45.4916 5.78496 42.1918 5.71748C38.8901 5.64996 35.6654 6.71821 33.057 8.74355C30.4486 10.7689 28.6148 13.6285 27.8623 16.844C27.1097 20.0594 27.4842 23.4358 28.9229 26.4083Z" fill="#3B65E6" stroke="black" stroke-width="0.847885"/>
<path d="M28.5411 26.5931C28.5732 26.6661 28.611 26.7395 28.6461 26.8099C28.6812 26.8803 28.7292 26.9714 28.7722 27.0509C29.0024 27.046 29.2303 27.0325 29.4529 27.013C29.4857 27.0103 29.5176 27.0012 29.5469 26.9861C29.5761 26.9711 29.6021 26.9504 29.6234 26.9253C29.6447 26.9002 29.6608 26.8712 29.6709 26.8399C29.6809 26.8086 29.6847 26.7756 29.682 26.7428C29.6793 26.71 29.6701 26.6781 29.6551 26.6488C29.64 26.6196 29.6194 26.5935 29.5943 26.5723C29.5692 26.551 29.5402 26.5349 29.5088 26.5248C29.4775 26.5148 29.4445 26.511 29.4117 26.5137C29.1693 26.532 28.9217 26.5442 28.6713 26.5534C28.6253 26.5558 28.5806 26.5694 28.5411 26.5931Z" fill="black"/>
<path d="M29.6885 27.1562C29.6868 27.1636 29.6863 27.1712 29.6871 27.1788C29.6946 27.2432 29.727 27.3021 29.7773 27.343C29.8277 27.3839 29.8919 27.4036 29.9565 27.3979C30.211 27.3691 30.4658 27.3346 30.7125 27.294C30.7469 27.2908 30.7803 27.2806 30.8106 27.2639C30.8409 27.2473 30.8675 27.2246 30.8886 27.1972C30.9098 27.1699 30.9251 27.1384 30.9336 27.1049C30.9421 27.0714 30.9436 27.0365 30.938 27.0024C30.9324 26.9682 30.9199 26.9356 30.9012 26.9065C30.8824 26.8775 30.8579 26.8526 30.8292 26.8334C30.8004 26.8142 30.768 26.8011 30.734 26.795C30.6999 26.7889 30.665 26.7898 30.6313 26.7978C30.3933 26.8361 30.1442 26.8709 29.8982 26.9003C29.838 26.9099 29.7834 26.9413 29.7448 26.9884C29.7061 27.0356 29.6861 27.0953 29.6885 27.1562Z" fill="black"/>
<path d="M30.9546 27.409C30.9508 27.4228 30.9499 27.4372 30.9518 27.4514C30.9576 27.4839 30.9699 27.5149 30.9879 27.5426C31.0059 27.5703 31.0293 27.5941 31.0567 27.6125C31.084 27.631 31.1149 27.6438 31.1473 27.6501C31.1797 27.6564 31.2131 27.6561 31.2454 27.6493C31.4985 27.5977 31.7491 27.5403 31.9914 27.4795C32.0251 27.4729 32.057 27.4595 32.0853 27.4401C32.1136 27.4208 32.1376 27.3958 32.1559 27.3669C32.1742 27.3379 32.1864 27.3055 32.1918 27.2716C32.1972 27.2378 32.1956 27.2032 32.1871 27.17C32.1787 27.1368 32.1635 27.1056 32.1426 27.0785C32.1217 27.0513 32.0955 27.0287 32.0655 27.012C32.0356 26.9953 32.0025 26.985 31.9684 26.9815C31.9343 26.978 31.8999 26.9815 31.8672 26.9918C31.6305 27.053 31.3885 27.1081 31.1469 27.1576C31.0907 27.1708 31.0408 27.203 31.0057 27.2488C30.9707 27.2947 30.9526 27.3513 30.9546 27.409Z" fill="black"/>
<path d="M32.2366 27.5437C32.236 27.5661 32.2394 27.5884 32.2465 27.6096C32.2653 27.6729 32.3085 27.7261 32.3666 27.7576C32.4247 27.789 32.4929 27.7962 32.5562 27.7774C32.8019 27.7083 33.0455 27.6277 33.2867 27.5413C33.3444 27.5153 33.3902 27.4686 33.415 27.4105C33.4399 27.3523 33.4419 27.2869 33.4208 27.2273C33.3997 27.1677 33.3569 27.1182 33.301 27.0887C33.2451 27.0591 33.1801 27.0517 33.119 27.0678C32.8866 27.1491 32.6516 27.2284 32.4139 27.3055C32.3627 27.321 32.3178 27.3524 32.2859 27.3953C32.254 27.4382 32.2367 27.4902 32.2366 27.5437Z" fill="black"/>
<path d="M33.5234 27.5652C33.5243 27.595 33.531 27.6244 33.5433 27.6516C33.555 27.6826 33.5728 27.7109 33.5955 27.7349C33.6183 27.759 33.6457 27.7782 33.676 27.7915C33.7063 27.8049 33.7389 27.812 33.772 27.8126C33.8051 27.8132 33.838 27.8072 33.8688 27.7949C34.1048 27.6996 34.3439 27.6017 34.5721 27.4974C34.6045 27.4855 34.6341 27.467 34.6591 27.4431C34.684 27.4193 34.7038 27.3905 34.7172 27.3587C34.7306 27.3269 34.7373 27.2926 34.7369 27.2581C34.7365 27.2236 34.729 27.1895 34.7149 27.158C34.7008 27.1264 34.6803 27.0982 34.6548 27.0749C34.6293 27.0516 34.5993 27.0338 34.5666 27.0226C34.534 27.0114 34.4993 27.007 34.4649 27.0097C34.4305 27.0125 34.397 27.0223 34.3665 27.0385C34.1442 27.1403 33.9138 27.236 33.6837 27.3259C33.6358 27.3447 33.5947 27.3776 33.566 27.4204C33.5373 27.4632 33.5225 27.5137 33.5234 27.5652Z" fill="black"/>
<path d="M34.8119 27.4905C34.8143 27.5266 34.8236 27.5619 34.8392 27.5945C34.8537 27.6241 34.874 27.6505 34.8987 27.6722C34.9235 27.6939 34.9524 27.7105 34.9837 27.721C35.0149 27.7315 35.0479 27.7356 35.0808 27.7333C35.1137 27.7309 35.1458 27.7221 35.1752 27.7072C35.4009 27.5971 35.6301 27.4758 35.8539 27.3514C35.9122 27.3176 35.9547 27.262 35.972 27.1969C35.9892 27.1317 35.98 27.0624 35.9461 27.0041C35.9123 26.9458 35.8567 26.9034 35.7916 26.8861C35.7265 26.8688 35.6571 26.8781 35.5989 26.9119C35.3809 27.0339 35.1605 27.1501 34.9406 27.2577C34.8998 27.2809 34.8662 27.3149 34.8435 27.356C34.8208 27.3971 34.8099 27.4436 34.8119 27.4905Z" fill="black"/>
<path d="M36.09 27.2901C36.0926 27.334 36.1054 27.3766 36.1273 27.4146C36.1442 27.4428 36.1665 27.4674 36.1929 27.487C36.2194 27.5065 36.2494 27.5207 36.2814 27.5286C36.3133 27.5365 36.3465 27.5379 36.379 27.5329C36.4115 27.528 36.4427 27.5166 36.4708 27.4995C36.6893 27.369 36.9046 27.244 37.1161 27.0904C37.1436 27.0719 37.1672 27.0482 37.1855 27.0205C37.2039 26.9929 37.2166 26.962 37.2229 26.9294C37.2293 26.8969 37.2291 26.8634 37.2225 26.8309C37.2159 26.7985 37.2029 26.7676 37.1844 26.7401C37.1661 26.7127 37.1427 26.6892 37.1153 26.6709C37.0879 26.6527 37.0572 26.64 37.0249 26.6337C36.9926 26.6273 36.9593 26.6275 36.9271 26.634C36.8948 26.6406 36.8642 26.6535 36.837 26.672C36.6322 26.8091 36.4229 26.9288 36.2123 27.0683C36.1746 27.0916 36.1434 27.1243 36.122 27.1631C36.1006 27.202 36.0896 27.2458 36.09 27.2901Z" fill="black"/>
<path d="M37.3453 26.9805C37.3468 27.026 37.3607 27.0703 37.3855 27.1086C37.4102 27.147 37.4449 27.1778 37.4858 27.198C37.5267 27.2181 37.5724 27.2268 37.6178 27.223C37.6633 27.2193 37.7069 27.2033 37.7439 27.1767C37.9464 27.031 38.1523 26.8771 38.3415 26.7163C38.3898 26.6736 38.4198 26.6141 38.4255 26.55C38.4313 26.4858 38.4122 26.4219 38.3723 26.3714C38.3324 26.3208 38.2746 26.2875 38.2109 26.2782C38.1472 26.2689 38.0823 26.2844 38.0296 26.3214C37.8323 26.4759 37.6351 26.6276 37.433 26.7677C37.4029 26.7939 37.3793 26.8268 37.364 26.8637C37.3488 26.9007 37.3424 26.9406 37.3453 26.9805Z" fill="black"/>
<path d="M38.575 26.5812C38.5738 26.639 38.5944 26.6951 38.6328 26.7383C38.6544 26.7631 38.6807 26.7834 38.7102 26.798C38.7397 26.8126 38.7718 26.8213 38.8046 26.8234C38.8375 26.8255 38.8704 26.8212 38.9015 26.8105C38.9327 26.7998 38.9614 26.7831 38.986 26.7613C39.1809 26.6009 39.3708 26.4317 39.5608 26.2597C39.588 26.2382 39.6105 26.2114 39.6269 26.1809C39.6433 26.1504 39.6533 26.1168 39.6561 26.0823C39.659 26.0477 39.6546 26.013 39.6434 25.9802C39.6323 25.9474 39.6144 25.9172 39.591 25.8916C39.5677 25.8661 39.5393 25.8456 39.5076 25.8314C39.476 25.8173 39.4417 25.8099 39.4071 25.8096C39.3724 25.8093 39.3381 25.8162 39.3062 25.8297C39.2743 25.8433 39.2456 25.8633 39.2218 25.8885C39.0378 26.0553 38.8512 26.219 38.6621 26.3769C38.6326 26.4018 38.6093 26.4332 38.5942 26.4687C38.5791 26.5042 38.5725 26.5427 38.575 26.5812Z" fill="black"/>
<path d="M39.7669 26.0942C39.7683 26.1429 39.7837 26.1901 39.8114 26.2302C39.8391 26.2702 39.8778 26.3014 39.9228 26.3199C39.9678 26.3385 40.0172 26.3436 40.065 26.3347C40.1129 26.3257 40.1571 26.3031 40.1924 26.2696C40.3743 26.0923 40.5533 25.9148 40.7295 25.7371C40.7751 25.6889 40.7998 25.6245 40.798 25.5582C40.7962 25.4918 40.7681 25.4288 40.7199 25.3832C40.6717 25.3375 40.6074 25.3129 40.541 25.3146C40.4746 25.3164 40.4117 25.3445 40.366 25.3927C40.1926 25.5715 40.0194 25.7475 39.8431 25.9261C39.7966 25.97 39.7692 26.0304 39.7669 26.0942Z" fill="black"/>
<path d="M40.9235 25.5284C40.9238 25.5623 40.9313 25.5956 40.9455 25.6264C40.9596 25.6571 40.98 25.6846 41.0055 25.7069C41.0301 25.7305 41.0592 25.7488 41.0911 25.7609C41.123 25.7729 41.157 25.7783 41.191 25.7768C41.2251 25.7753 41.2585 25.767 41.2892 25.7522C41.3199 25.7374 41.3473 25.7166 41.3698 25.6909C41.5381 25.5033 41.7039 25.3098 41.87 25.1135C41.9124 25.062 41.9326 24.9958 41.9263 24.9295C41.92 24.8631 41.8877 24.802 41.8364 24.7594C41.7849 24.717 41.7187 24.6968 41.6524 24.7031C41.586 24.7094 41.5249 24.7417 41.4823 24.793C41.3223 24.9841 41.1737 25.173 40.9973 25.3545C40.974 25.3771 40.9555 25.4041 40.9428 25.434C40.9302 25.4639 40.9236 25.496 40.9235 25.5284Z" fill="black"/>
<path d="M42.0412 24.8863C42.0429 24.9376 42.0602 24.9871 42.0908 25.0283C42.1214 25.0695 42.1638 25.1003 42.2124 25.1167C42.2609 25.1332 42.3134 25.1344 42.3627 25.1202C42.412 25.1061 42.4558 25.0772 42.4882 25.0375C42.646 24.8378 42.7981 24.6378 42.9506 24.4321C42.9701 24.4052 42.9841 24.3748 42.9919 24.3425C42.9996 24.3102 43.0009 24.2768 42.9956 24.244C42.9904 24.2112 42.9787 24.1798 42.9613 24.1515C42.9439 24.1233 42.9211 24.0987 42.8941 24.0793C42.84 24.0404 42.7728 24.0242 42.7069 24.0342C42.641 24.0442 42.5817 24.0797 42.5416 24.1329C42.3923 24.3332 42.2319 24.5299 42.0887 24.7248C42.0542 24.7713 42.0373 24.8286 42.0412 24.8863Z" fill="black"/>
<path d="M43.1185 24.1792C43.1189 24.2186 43.1288 24.2573 43.1473 24.2921C43.1657 24.3268 43.1923 24.3567 43.2246 24.3791C43.2794 24.4172 43.347 24.432 43.4126 24.4203C43.4783 24.4086 43.5366 24.3714 43.5749 24.3168C43.7189 24.1106 43.8603 23.9013 44.002 23.6864C44.0199 23.6589 44.0322 23.6281 44.0381 23.5958C44.0441 23.5635 44.0436 23.5304 44.0368 23.4983C44.0299 23.4662 44.0168 23.4358 43.9981 23.4088C43.9794 23.3818 43.9556 23.3588 43.928 23.341C43.8722 23.3052 43.8046 23.2926 43.7397 23.3059C43.6747 23.3191 43.6174 23.3572 43.5801 23.4119C43.4443 23.6216 43.306 23.8282 43.1624 24.0288C43.132 24.0729 43.1166 24.1257 43.1185 24.1792Z" fill="black"/>
<path d="M44.1518 23.4124C44.1521 23.4539 44.163 23.4946 44.1835 23.5307C44.204 23.5668 44.2334 23.5971 44.2689 23.6186C44.2967 23.6363 44.3278 23.6483 44.3603 23.6539C44.3929 23.6595 44.4262 23.6585 44.4584 23.6511C44.4905 23.6437 44.5209 23.63 44.5477 23.6108C44.5745 23.5915 44.5973 23.5672 44.6146 23.5391C44.7476 23.3264 44.8783 23.1079 45.0089 22.8894C45.042 22.8318 45.051 22.7635 45.034 22.6993C45.017 22.6351 44.9753 22.5802 44.9181 22.5466C44.8608 22.5129 44.7926 22.5032 44.7282 22.5196C44.6638 22.536 44.6085 22.5771 44.5743 22.634C44.4466 22.8527 44.3191 23.0657 44.1893 23.2729C44.1623 23.3142 44.1491 23.3631 44.1518 23.4124Z" fill="black"/>
<path d="M45.143 22.5917C45.144 22.6471 45.1632 22.7006 45.1976 22.7439C45.232 22.7873 45.2798 22.8181 45.3335 22.8316C45.3872 22.8452 45.4438 22.8406 45.4947 22.8187C45.5456 22.7968 45.5878 22.7588 45.6149 22.7105C45.7372 22.4886 45.8567 22.2666 45.9737 22.0387C45.9893 22.0095 45.9989 21.9776 46.002 21.9447C46.0051 21.9118 46.0016 21.8787 45.9918 21.8471C45.982 21.8156 45.966 21.7863 45.9448 21.761C45.9235 21.7357 45.8975 21.7149 45.8681 21.6998C45.8086 21.67 45.7399 21.6647 45.6765 21.6849C45.6132 21.7052 45.5602 21.7494 45.529 21.8082C45.4124 22.0304 45.2959 22.2498 45.1739 22.466C45.1541 22.505 45.1435 22.548 45.143 22.5917Z" fill="black"/>
<path d="M46.0924 21.7258C46.0937 21.7822 46.1139 21.8367 46.1498 21.8803C46.1857 21.9239 46.2352 21.9542 46.2904 21.9663C46.3455 21.9784 46.4032 21.9716 46.454 21.9471C46.5049 21.9225 46.546 21.8815 46.5708 21.8308C46.682 21.6053 46.7915 21.377 46.8993 21.1456C46.913 21.1158 46.9207 21.0835 46.9219 21.0507C46.9231 21.0179 46.9179 20.9852 46.9064 20.9544C46.895 20.9236 46.8776 20.8954 46.8553 20.8713C46.833 20.8472 46.8061 20.8278 46.7762 20.8141C46.7464 20.8004 46.7141 20.7927 46.6813 20.7915C46.6485 20.7903 46.6158 20.7955 46.585 20.807C46.5542 20.8184 46.526 20.8358 46.5019 20.8581C46.4778 20.8805 46.4584 20.9073 46.4447 20.9372C46.3392 21.163 46.2308 21.3886 46.1171 21.6082C46.0995 21.6448 46.0911 21.6852 46.0924 21.7258Z" fill="black"/>
<path d="M47.0032 20.8177C47.004 20.8653 47.0186 20.9117 47.0452 20.9512C47.0718 20.9908 47.1094 21.0217 47.1532 21.0403C47.2143 21.0672 47.2836 21.0687 47.3458 21.0446C47.408 21.0204 47.4581 20.9726 47.4851 20.9116C47.5852 20.6826 47.6855 20.4508 47.7804 20.2129C47.7931 20.1826 47.7997 20.1502 47.7998 20.1173C47.7999 20.0845 47.7935 20.052 47.781 20.0216C47.7684 19.9913 47.75 19.9637 47.7268 19.9405C47.7036 19.9172 47.676 19.8988 47.6457 19.8863C47.5842 19.8606 47.5149 19.8603 47.4532 19.8855C47.3914 19.9107 47.3422 19.9594 47.3162 20.0209C47.2216 20.2531 47.1244 20.4822 47.0245 20.7084C47.0092 20.7428 47.0019 20.7801 47.0032 20.8177Z" fill="black"/>
<path d="M47.8745 19.8698C47.8757 19.9189 47.8913 19.9665 47.9195 20.0067C47.9477 20.0469 47.9871 20.0779 48.0328 20.0958C48.0948 20.1204 48.164 20.1195 48.2253 20.0932C48.2866 20.0669 48.335 20.0173 48.3598 19.9554C48.4522 19.7146 48.5415 19.4763 48.625 19.2406C48.6422 19.179 48.6354 19.1132 48.6059 19.0564C48.5763 18.9997 48.5264 18.9563 48.466 18.9351C48.4057 18.9138 48.3396 18.9163 48.281 18.942C48.2225 18.9677 48.1759 19.0146 48.1507 19.0734C48.0704 19.3037 47.9814 19.5363 47.8894 19.7715C47.8787 19.8031 47.8736 19.8364 47.8745 19.8698Z" fill="black"/>
<path d="M52.2368 9.46791C52.2175 9.49149 52.1929 9.51028 52.1651 9.52283C52.1059 9.55346 52.037 9.55936 51.9734 9.53926C51.9098 9.51915 51.8568 9.47467 51.8259 9.41555C51.7153 9.19834 51.5929 8.98603 51.4704 8.77656L52.2368 9.46791Z" fill="black"/>
<path d="M48.6957 18.8793C48.697 18.9389 48.7193 18.9962 48.7588 19.0409C48.7982 19.0856 48.8523 19.1148 48.9113 19.1234C48.9703 19.1321 49.0304 19.1195 49.081 19.0879C49.1316 19.0564 49.1694 19.0079 49.1876 18.9511C49.2688 18.7067 49.3416 18.4618 49.4111 18.2223C49.4242 18.1896 49.4303 18.1545 49.429 18.1193C49.4277 18.0842 49.4191 18.0496 49.4036 18.018C49.3882 17.9864 49.3663 17.9583 49.3393 17.9357C49.3124 17.913 49.281 17.8963 49.2472 17.8865C49.2133 17.8767 49.1778 17.8742 49.143 17.8789C49.1081 17.8837 49.0746 17.8957 49.0447 17.9142C49.0147 17.9328 48.989 17.9573 48.9691 17.9864C48.9493 18.0154 48.9357 18.0483 48.9293 18.083C48.863 18.317 48.7908 18.5535 48.7097 18.7951C48.7008 18.8223 48.6961 18.8507 48.6957 18.8793Z" fill="black"/>
<path d="M51.6021 9.90331C51.6023 9.93716 51.6098 9.97056 51.6241 10.0012C51.726 10.2235 51.819 10.451 51.9061 10.6808C51.9295 10.7429 51.9767 10.7932 52.0371 10.8206C52.0976 10.8479 52.1665 10.8502 52.2286 10.8267C52.2907 10.8033 52.341 10.7562 52.3683 10.6957C52.3957 10.6352 52.3979 10.5664 52.3745 10.5043C52.2851 10.2657 52.1872 10.0266 52.0804 9.79265C52.0576 9.73865 52.0164 9.69445 51.9641 9.66782C51.9119 9.64118 51.8519 9.63383 51.7948 9.64705C51.7377 9.66027 51.687 9.69321 51.6518 9.74009C51.6166 9.78696 51.599 9.84476 51.6021 9.90331Z" fill="black"/>
<path d="M49.4591 17.8394C49.4582 17.9013 49.4804 17.9614 49.5213 18.0078C49.5623 18.0543 49.6191 18.0838 49.6807 18.0906C49.7422 18.0975 49.8041 18.0812 49.8543 18.0449C49.9045 18.0086 49.9393 17.9549 49.9521 17.8943C50.0167 17.6431 50.0753 17.3972 50.1283 17.1509C50.1383 17.0871 50.1234 17.0219 50.0866 16.9687C50.0499 16.9156 49.9942 16.8786 49.9309 16.8653C49.8677 16.8521 49.8018 16.8637 49.7468 16.8976C49.6919 16.9316 49.6521 16.9854 49.6356 17.0478C49.586 17.2858 49.5278 17.526 49.4665 17.7689C49.4599 17.7918 49.4574 17.8156 49.4591 17.8394Z" fill="black"/>
<path d="M51.6229 11.1646C51.6243 11.1889 51.6284 11.2129 51.6352 11.2363C51.7082 11.4653 51.7749 11.7051 51.8302 11.9443C51.8459 12.0093 51.8868 12.0654 51.9438 12.1002C52.0009 12.1351 52.0695 12.1459 52.1345 12.1302C52.1995 12.1145 52.2556 12.0736 52.2904 12.0165C52.3253 11.9595 52.336 11.8909 52.3203 11.8259C52.2601 11.5751 52.1912 11.3265 52.1134 11.0831C52.0929 11.0198 52.0482 10.9672 51.989 10.9368C51.9299 10.9063 51.8611 10.9005 51.7977 10.9206C51.7465 10.9375 51.702 10.9703 51.6705 11.0141C51.6391 11.058 51.6224 11.1106 51.6229 11.1646Z" fill="black"/>
<path d="M50.1485 16.7493C50.1491 16.8071 50.1701 16.8629 50.2077 16.9068C50.2453 16.9508 50.2971 16.9801 50.3542 16.9897C50.3872 16.9958 50.421 16.9953 50.4538 16.9884C50.4866 16.9814 50.5176 16.968 50.5452 16.949C50.5728 16.9299 50.5964 16.9057 50.6146 16.8775C50.6328 16.8494 50.6453 16.8179 50.6513 16.7849C50.696 16.5353 50.7354 16.2796 50.7688 16.0292C50.7714 15.9662 50.7502 15.9045 50.7095 15.8563C50.6688 15.8081 50.6115 15.7769 50.5489 15.7689C50.4864 15.7609 50.4231 15.7766 50.3715 15.813C50.32 15.8494 50.284 15.9038 50.2707 15.9655C50.2378 16.2074 50.199 16.4546 50.1577 16.6959C50.1518 16.7131 50.1487 16.7311 50.1485 16.7493Z" fill="black"/>
<path d="M51.4902 12.4215C51.4877 12.4346 51.4869 12.4478 51.4876 12.4611C51.5316 12.6995 51.5666 12.9458 51.5962 13.189C51.6038 13.2534 51.6361 13.3123 51.6865 13.3532C51.7368 13.3941 51.801 13.4137 51.8656 13.408C51.9299 13.3998 51.9887 13.3673 52.0299 13.3173C52.0711 13.2673 52.0917 13.2034 52.0875 13.1387C52.0559 12.8841 52.0188 12.6263 51.9727 12.3764C51.9596 12.3113 51.9216 12.2539 51.8668 12.2164C51.812 12.1789 51.7448 12.1643 51.6793 12.1756C51.6249 12.1897 51.5767 12.2215 51.5425 12.266C51.5082 12.3106 51.4898 12.3653 51.4902 12.4215Z" fill="black"/>
<path d="M50.7471 15.6023C50.7496 15.6644 50.775 15.7235 50.8185 15.768C50.862 15.8125 50.9204 15.8394 50.9824 15.8435C51.0445 15.8475 51.1059 15.8284 51.1548 15.7899C51.2037 15.7514 51.2366 15.6962 51.2472 15.6349C51.264 15.3778 51.2808 15.1206 51.2972 14.8692C51.2986 14.8362 51.2935 14.8033 51.2821 14.7724C51.2707 14.7414 51.2533 14.713 51.2308 14.6889C51.2084 14.6647 51.1814 14.6452 51.1513 14.6316C51.1213 14.6179 51.0889 14.6104 51.0559 14.6094C51.0229 14.6076 50.9898 14.6124 50.9587 14.6237C50.9276 14.6349 50.899 14.6523 50.8748 14.6748C50.8505 14.6974 50.8311 14.7245 50.8176 14.7547C50.8041 14.7849 50.7968 14.8176 50.7961 14.8506C50.7803 15.0936 50.7642 15.3395 50.748 15.5881L50.7471 15.6023Z" fill="black"/>
<path d="M51.2103 13.6545C51.2285 13.8969 51.2379 14.1444 51.2388 14.3914C51.2403 14.4577 51.2675 14.5209 51.3148 14.5674C51.3621 14.614 51.4257 14.6402 51.4921 14.6406C51.5264 14.6404 51.5603 14.6332 51.5917 14.6195C51.6231 14.6058 51.6513 14.5858 51.6748 14.5607C51.6982 14.5357 51.7162 14.5062 51.7278 14.4739C51.7394 14.4417 51.7444 14.4074 51.7423 14.3732C51.7393 14.1147 51.7304 13.8588 51.7129 13.6051C51.7074 13.5389 51.6762 13.4774 51.6261 13.4339C51.5759 13.3903 51.5107 13.3681 51.4444 13.3719C51.4099 13.3736 51.3762 13.3825 51.3454 13.398C51.3145 13.4135 51.2873 13.4352 51.2652 13.4618C51.2432 13.4884 51.227 13.5192 51.2175 13.5524C51.2081 13.5856 51.2056 13.6204 51.2103 13.6545Z" fill="black"/>
<path d="M29.3761 28.0665L29.6353 28.4438C29.8826 28.4373 30.1303 28.4251 30.3757 28.4042C30.4085 28.4018 30.4405 28.393 30.4699 28.3781C30.4993 28.3633 30.5254 28.3428 30.5469 28.3178C30.5683 28.2928 30.5845 28.2639 30.5947 28.2326C30.6048 28.2013 30.6087 28.1683 30.606 28.1355C30.6005 28.0694 30.5692 28.0083 30.5189 27.9652C30.4686 27.922 30.4034 27.9005 30.3373 27.9051C30.0949 27.9233 29.8471 27.9384 29.5997 27.9449C29.5548 27.9423 29.5101 27.9522 29.4706 27.9737C29.431 27.9952 29.3983 28.0274 29.3761 28.0665Z" fill="black"/>
<path d="M30.5805 28.5538C30.5787 28.5612 30.5782 28.5688 30.5791 28.5764C30.5866 28.6408 30.619 28.6997 30.6693 28.7406C30.7197 28.7815 30.7839 28.8012 30.8485 28.7955C31.1001 28.7665 31.358 28.7294 31.6077 28.6861C31.6413 28.6826 31.6738 28.6723 31.7033 28.6558C31.7328 28.6393 31.7586 28.6169 31.7792 28.5902C31.7998 28.5634 31.8147 28.5327 31.8231 28.4999C31.8315 28.4672 31.8331 28.4331 31.8278 28.3997C31.8166 28.3339 31.7798 28.2752 31.7254 28.2366C31.671 28.1979 31.6035 28.1824 31.5377 28.1935C31.2938 28.2343 31.0503 28.2695 30.8043 28.2988C30.742 28.3058 30.6845 28.3359 30.6431 28.383C30.6017 28.4302 30.5794 28.4911 30.5805 28.5538Z" fill="black"/>
<path d="M31.8523 28.7928C31.8489 28.8076 31.8479 28.8228 31.8494 28.838C31.8561 28.8701 31.8691 28.9007 31.8877 28.9278C31.9063 28.9549 31.9301 28.9781 31.9577 28.996C31.9852 29.0139 32.0161 29.0261 32.0484 29.032C32.0808 29.038 32.114 29.0374 32.1461 29.0304C32.3935 28.9785 32.6443 28.9182 32.8927 28.8522C32.9244 28.8437 32.9542 28.829 32.9802 28.809C33.0062 28.789 33.0281 28.7641 33.0444 28.7356C33.0608 28.7071 33.0714 28.6757 33.0755 28.6431C33.0797 28.6106 33.0774 28.5775 33.0688 28.5458C33.0516 28.4817 33.0098 28.4269 32.9525 28.3934C32.8952 28.3599 32.8269 28.3504 32.7626 28.3669C32.5229 28.4307 32.2808 28.4887 32.042 28.5384C31.986 28.5526 31.9366 28.5857 31.9021 28.632C31.8676 28.6783 31.85 28.735 31.8523 28.7928Z" fill="black"/>
<path d="M33.1355 28.9133C33.1325 28.9349 33.1311 28.9566 33.1313 28.9783C33.1513 29.0421 33.1956 29.0955 33.2546 29.1269C33.3135 29.1584 33.3825 29.1654 33.4466 29.1465C33.6899 29.0715 33.9337 28.9881 34.1715 28.91C34.2026 28.8988 34.2311 28.8816 34.2555 28.8592C34.2798 28.8369 34.2995 28.81 34.3133 28.78C34.3272 28.75 34.3349 28.7176 34.3361 28.6846C34.3373 28.6515 34.3319 28.6186 34.3202 28.5877C34.2964 28.5259 34.2494 28.4758 34.1892 28.448C34.1291 28.4202 34.0605 28.417 33.9979 28.439C33.7681 28.5261 33.5331 28.6044 33.2985 28.6771C33.2505 28.6952 33.2092 28.7275 33.1801 28.7697C33.151 28.812 33.1354 28.8621 33.1355 28.9133Z" fill="black"/>
<path d="M34.4257 28.9154C34.4272 28.9457 34.4329 28.9757 34.4426 29.0045C34.4685 29.0659 34.5174 29.1147 34.5788 29.1404C34.6402 29.1662 34.7093 29.1668 34.7712 29.1423C35.0045 29.0469 35.2411 28.9431 35.4726 28.8305C35.5026 28.8168 35.5294 28.7972 35.5517 28.7729C35.5739 28.7486 35.591 28.7201 35.602 28.6891C35.613 28.6581 35.6177 28.6251 35.6158 28.5923C35.6139 28.5594 35.6054 28.5273 35.5909 28.4977C35.5624 28.4379 35.5116 28.3916 35.4494 28.369C35.3871 28.3463 35.3185 28.3491 35.2582 28.3767C35.0327 28.484 34.8048 28.5855 34.5804 28.6758C34.5334 28.6954 34.4935 28.7289 34.4659 28.7716C34.4382 28.8144 34.4242 28.8645 34.4257 28.9154Z" fill="black"/>
<path d="M35.7134 28.8038C35.7139 28.8465 35.7255 28.8884 35.7469 28.9254C35.7683 28.9623 35.7988 28.9932 35.8356 29.015C35.8723 29.0368 35.9141 29.0487 35.9568 29.0497C35.9995 29.0507 36.0418 29.0407 36.0795 29.0206C36.3027 28.9047 36.5293 28.7804 36.7507 28.6502C36.808 28.6164 36.8496 28.5615 36.8666 28.4972C36.8835 28.433 36.8744 28.3646 36.8412 28.307C36.8248 28.2784 36.8028 28.2533 36.7766 28.2332C36.7504 28.2131 36.7205 28.1984 36.6885 28.19C36.6566 28.1816 36.6233 28.1796 36.5906 28.1841C36.5579 28.1887 36.5265 28.1997 36.4981 28.2165C36.2827 28.3415 36.0642 28.472 35.8476 28.5742C35.8058 28.5959 35.771 28.6289 35.7473 28.6696C35.7236 28.7102 35.7118 28.7567 35.7134 28.8038Z" fill="black"/>
<path d="M36.9853 28.5802C36.9882 28.6252 37.0019 28.6689 37.0252 28.7076C37.0612 28.7636 37.1179 28.8031 37.1828 28.8174C37.2478 28.8317 37.3159 28.8198 37.3721 28.7842C37.5851 28.6505 37.7987 28.5084 38.0098 28.3604C38.0468 28.3173 38.0681 28.263 38.0703 28.2063C38.0725 28.1496 38.0555 28.0938 38.0221 28.0479C37.9886 28.002 37.9407 27.9688 37.886 27.9536C37.8313 27.9384 37.773 27.9421 37.7207 27.9641C37.5156 28.1068 37.308 28.2437 37.1037 28.3751C37.069 28.3973 37.0401 28.4275 37.0195 28.4632C36.9989 28.4989 36.9872 28.539 36.9853 28.5802Z" fill="black"/>
<path d="M38.2347 28.2531C38.2345 28.3058 38.2521 28.357 38.2848 28.3983C38.3252 28.4511 38.3848 28.4858 38.4506 28.4949C38.5165 28.504 38.5832 28.4867 38.6364 28.4468C38.8355 28.2952 39.0349 28.1379 39.2347 27.975C39.2842 27.931 39.3144 27.8693 39.3187 27.8032C39.323 27.7371 39.3011 27.6719 39.2578 27.6218C39.2362 27.597 39.2099 27.5767 39.1804 27.5621C39.1509 27.5475 39.1188 27.5388 39.086 27.5367C39.0531 27.5345 39.0202 27.5389 38.9891 27.5496C38.9579 27.5602 38.9292 27.577 38.9046 27.5988C38.7098 27.7563 38.5155 27.9082 38.3072 28.0564C38.2813 28.0818 38.2615 28.1126 38.249 28.1467C38.2364 28.1807 38.2316 28.217 38.2347 28.2531Z" fill="black"/>
<path d="M39.454 27.8305C39.4538 27.8894 39.4754 27.9464 39.5145 27.9905C39.5361 28.0153 39.5623 28.0357 39.5918 28.0503C39.6213 28.0649 39.6534 28.0735 39.6863 28.0756C39.7191 28.0778 39.752 28.0734 39.7832 28.0628C39.8143 28.0521 39.843 28.0354 39.8677 28.0136C40.0601 27.8474 40.2473 27.6751 40.4347 27.5001C40.4595 27.4785 40.4798 27.4522 40.4944 27.4227C40.509 27.3932 40.5177 27.3611 40.5198 27.3283C40.522 27.2954 40.5176 27.2625 40.5069 27.2314C40.4963 27.2002 40.4795 27.1715 40.4577 27.1469C40.4113 27.0989 40.3479 27.071 40.2811 27.0693C40.2144 27.0676 40.1496 27.0922 40.1008 27.1377C39.9223 27.3077 39.7383 27.4745 39.5516 27.6382C39.5215 27.6605 39.497 27.6894 39.4801 27.7228C39.4631 27.7562 39.4542 27.793 39.454 27.8305Z" fill="black"/>
<path d="M40.6371 27.3231C40.6377 27.3726 40.653 27.4208 40.681 27.4615C40.709 27.5022 40.7486 27.5337 40.7945 27.5519C40.8405 27.5702 40.8909 27.5743 40.9392 27.5638C40.9875 27.5533 41.0316 27.5287 41.0659 27.493C41.245 27.3146 41.4216 27.1303 41.5956 26.943C41.6202 26.9192 41.6397 26.8906 41.6529 26.859C41.6661 26.8274 41.6727 26.7934 41.6724 26.7591C41.672 26.7249 41.6646 26.6911 41.6507 26.6597C41.6368 26.6284 41.6167 26.6003 41.5916 26.577C41.5664 26.5537 41.5368 26.5358 41.5045 26.5243C41.4722 26.5129 41.4379 26.5082 41.4037 26.5104C41.3695 26.5127 41.3362 26.5219 41.3057 26.5375C41.2752 26.5531 41.2481 26.5747 41.2263 26.6011C41.0553 26.7857 40.8847 26.9647 40.7118 27.1351C40.6866 27.1592 40.6669 27.1885 40.654 27.221C40.6411 27.2534 40.6354 27.2883 40.6371 27.3231Z" fill="black"/>
<path d="M41.7838 26.7368C41.7854 26.7873 41.802 26.8362 41.8317 26.8771C41.8613 26.918 41.9026 26.9491 41.9501 26.9663C41.9976 26.9834 42.0492 26.9859 42.0982 26.9734C42.1471 26.9609 42.1912 26.934 42.2246 26.8961C42.3903 26.7054 42.5562 26.5119 42.7166 26.3153C42.7469 26.2628 42.7573 26.2013 42.7459 26.1418C42.7346 26.0823 42.7022 26.0289 42.6547 25.9914C42.6072 25.9539 42.5478 25.9347 42.4873 25.9373C42.4268 25.94 42.3693 25.9644 42.3253 26.0059C42.1679 26.2 42.0166 26.3887 41.8456 26.5734C41.8064 26.6189 41.7845 26.6767 41.7838 26.7368Z" fill="black"/>
<path d="M42.8951 26.083C42.8954 26.1203 42.9044 26.157 42.9214 26.1901C42.9385 26.2233 42.9631 26.252 42.9933 26.2739C43.0193 26.2942 43.0491 26.3092 43.0809 26.318C43.1127 26.3268 43.146 26.3291 43.1787 26.3249C43.2115 26.3207 43.2431 26.31 43.2717 26.2935C43.3002 26.277 43.3253 26.255 43.3453 26.2287C43.5002 26.0288 43.6553 25.8261 43.7993 25.6199C43.8189 25.5934 43.833 25.5634 43.8409 25.5314C43.8488 25.4995 43.8503 25.4663 43.8453 25.4338C43.8403 25.4013 43.8289 25.3701 43.8118 25.342C43.7947 25.3139 43.7721 25.2895 43.7455 25.2702C43.7184 25.2488 43.6872 25.2332 43.6538 25.2244C43.6204 25.2156 43.5856 25.2138 43.5514 25.219C43.5173 25.2242 43.4846 25.2364 43.4554 25.2548C43.4262 25.2732 43.401 25.2974 43.3815 25.3259C43.2351 25.5263 43.0858 25.7265 42.9369 25.9211C42.9047 25.9687 42.89 26.0258 42.8951 26.083Z" fill="black"/>
<path d="M43.9627 25.3638C43.9632 25.4035 43.9734 25.4425 43.9924 25.4774C44.0114 25.5123 44.0386 25.542 44.0717 25.5639C44.0986 25.5827 44.1289 25.5959 44.161 25.603C44.193 25.61 44.2261 25.6106 44.2584 25.6048C44.2907 25.599 44.3215 25.5869 44.3491 25.5691C44.3766 25.5514 44.4005 25.5284 44.4191 25.5014C44.5633 25.2924 44.7047 25.0831 44.8436 24.868C44.8615 24.8401 44.8736 24.8089 44.8795 24.7763C44.8853 24.7437 44.8846 24.7103 44.8775 24.6779C44.8704 24.6456 44.857 24.6149 44.838 24.5878C44.8191 24.5606 44.7949 24.5374 44.767 24.5196C44.7393 24.5018 44.7084 24.4897 44.676 24.4839C44.6436 24.4781 44.6104 24.4788 44.5782 24.486C44.5461 24.4931 44.5157 24.5065 44.4888 24.5255C44.4619 24.5444 44.439 24.5685 44.4215 24.5964C44.2866 24.807 44.1483 25.0137 44.0064 25.2163C43.9757 25.2592 43.9603 25.3111 43.9627 25.3638Z" fill="black"/>
<path d="M44.9913 24.5909C44.9919 24.6324 45.0029 24.673 45.0234 24.7091C45.0438 24.7452 45.0731 24.7755 45.1083 24.7972C45.1652 24.832 45.2335 24.8429 45.2983 24.8274C45.3631 24.812 45.4192 24.7715 45.4543 24.7148C45.5873 24.5022 45.7179 24.2837 45.8459 24.0622C45.8785 24.0043 45.8872 23.936 45.8702 23.8718C45.8532 23.8077 45.8118 23.7527 45.7548 23.7185C45.7263 23.7022 45.6948 23.6917 45.6622 23.6876C45.6295 23.6834 45.5964 23.6858 45.5647 23.6946C45.533 23.7033 45.5034 23.7183 45.4775 23.7385C45.4516 23.7588 45.4299 23.784 45.4138 23.8126C45.2862 24.0294 45.1588 24.2424 45.0316 24.4517C45.0034 24.4925 44.9893 24.5414 44.9913 24.5909Z" fill="black"/>
<path d="M45.9797 23.7645C45.9812 23.8197 46.0008 23.8728 46.0354 23.9158C46.0701 23.9588 46.1179 23.9892 46.1715 24.0024C46.2251 24.0155 46.2816 24.0107 46.3322 23.9887C46.3828 23.9667 46.4248 23.9286 46.4517 23.8804C46.571 23.6612 46.6907 23.4363 46.8075 23.2113C46.8371 23.1522 46.8424 23.0838 46.822 23.0209C46.8017 22.958 46.7575 22.9056 46.6989 22.875C46.6698 22.86 46.6379 22.8508 46.6052 22.8482C46.5724 22.8455 46.5395 22.8493 46.5082 22.8594C46.477 22.8695 46.448 22.8856 46.4231 22.9069C46.3981 22.9283 46.3776 22.9543 46.3627 22.9836C46.246 23.2058 46.1295 23.4252 46.0104 23.6416C45.99 23.6793 45.9794 23.7216 45.9797 23.7645Z" fill="black"/>
<path d="M46.9267 22.8898C46.9274 22.9464 46.9472 23.0011 46.9829 23.0452C47.0185 23.0892 47.068 23.1199 47.1232 23.1323C47.1785 23.1448 47.2363 23.1383 47.2874 23.1138C47.3385 23.0894 47.3799 23.0484 47.4049 22.9976C47.5161 22.7722 47.6248 22.5409 47.7334 22.3124C47.7614 22.2518 47.7642 22.1825 47.7411 22.1198C47.7181 22.0571 47.6711 22.0062 47.6105 21.9781C47.5807 21.9643 47.5484 21.9565 47.5155 21.9552C47.4827 21.954 47.4499 21.9592 47.4191 21.9706C47.3883 21.9821 47.36 21.9995 47.336 22.0219C47.3119 22.0443 47.2926 22.0712 47.279 22.1012C47.1734 22.327 47.065 22.5526 46.9512 22.775C46.9337 22.8107 46.9253 22.8501 46.9267 22.8898Z" fill="black"/>
<path d="M47.838 21.9873C47.8408 22.0433 47.8622 22.0967 47.8987 22.1392C47.9353 22.1817 47.985 22.2108 48.04 22.2219C48.0949 22.2329 48.152 22.2254 48.2022 22.2004C48.2523 22.1754 48.2927 22.1343 48.317 22.0838C48.4201 21.8522 48.5203 21.6203 48.618 21.3855C48.6422 21.3238 48.6417 21.2552 48.6167 21.1938C48.5916 21.1325 48.5439 21.0831 48.4834 21.0561C48.4218 21.0313 48.3529 21.0319 48.2917 21.0577C48.2305 21.0834 48.182 21.1323 48.1566 21.1936C48.0592 21.4256 47.9619 21.6548 47.862 21.881C47.846 21.9141 47.8378 21.9505 47.838 21.9873Z" fill="black"/>
<path d="M48.708 21.0423C48.7091 21.0914 48.7248 21.139 48.753 21.1792C48.7812 21.2194 48.8206 21.2504 48.8663 21.2683C48.9283 21.2929 48.9975 21.292 49.0588 21.2657C49.1201 21.2394 49.1685 21.1898 49.1933 21.1279C49.2885 20.8872 49.375 20.6488 49.4613 20.4133C49.4785 20.3517 49.4717 20.2858 49.4421 20.2291C49.4126 20.1724 49.3626 20.129 49.3023 20.1077C49.242 20.0865 49.1759 20.0889 49.1173 20.1146C49.0588 20.1403 49.0122 20.1873 48.9869 20.2461C48.9038 20.4762 48.8177 20.7089 48.7257 20.9441C48.7127 20.9752 48.7067 21.0087 48.708 21.0423Z" fill="black"/>
<path d="M52.2682 9.8246C52.2683 9.86836 52.2802 9.91129 52.3027 9.94887C52.4309 10.1587 52.5587 10.3742 52.6637 10.5911C52.6916 10.6455 52.7383 10.6879 52.7951 10.7104C52.852 10.7329 52.9151 10.734 52.9727 10.7135C53.0303 10.6929 53.0784 10.6522 53.1082 10.5987C53.1379 10.5453 53.1472 10.4829 53.1344 10.4231L52.3778 9.6246C52.3446 9.64646 52.3172 9.67612 52.2981 9.71098C52.279 9.74585 52.2688 9.78485 52.2682 9.8246Z" fill="black"/>
<path d="M49.5326 20.052C49.5339 20.1037 49.5512 20.1538 49.582 20.1954C49.6127 20.237 49.6556 20.2681 49.7047 20.2845C49.7361 20.2951 49.7692 20.2993 49.8022 20.2969C49.8352 20.2945 49.8674 20.2855 49.8969 20.2705C49.9264 20.2556 49.9527 20.2349 49.9741 20.2096C49.9955 20.1844 50.0117 20.1552 50.0217 20.1236C50.1029 19.8792 50.1783 19.6372 50.248 19.3949C50.2657 19.331 50.2575 19.2627 50.2251 19.2048C50.1928 19.1469 50.1389 19.1041 50.0753 19.0857C50.0438 19.0761 50.0108 19.073 49.9781 19.0764C49.9454 19.0798 49.9137 19.0897 49.8849 19.1055C49.8561 19.1214 49.8308 19.1428 49.8104 19.1686C49.79 19.1944 49.775 19.224 49.7662 19.2556C49.697 19.4895 49.6246 19.7288 49.5466 19.9677C49.5364 19.9946 49.5317 20.0232 49.5326 20.052Z" fill="black"/>
<path d="M52.4414 11.0789C52.4416 11.1127 52.4491 11.1461 52.4634 11.1768C52.5651 11.4019 52.6609 11.6295 52.7454 11.8564C52.7714 11.9151 52.8189 11.9617 52.8782 11.9866C52.9374 12.0114 53.0039 12.0128 53.0641 11.9902C53.1243 11.9677 53.1736 11.923 53.2019 11.8654C53.2303 11.8077 53.2355 11.7414 53.2166 11.68C53.1272 11.4415 53.0265 11.2022 52.9197 10.9682C52.8968 10.9142 52.8557 10.87 52.8034 10.8434C52.7512 10.8167 52.6912 10.8094 52.6341 10.8226C52.5769 10.8358 52.5263 10.8688 52.4911 10.9156C52.4558 10.9625 52.4383 11.0203 52.4414 11.0789Z" fill="black"/>
<path d="M50.2965 19.015C50.2984 19.0756 50.3222 19.1334 50.3633 19.1779C50.4045 19.2224 50.4603 19.2506 50.5205 19.2573C50.5808 19.264 50.6414 19.2487 50.6913 19.2144C50.7412 19.18 50.7771 19.1287 50.7923 19.0701C50.8569 18.8189 50.9156 18.573 50.9685 18.3267C50.9802 18.2623 50.9665 18.1959 50.9301 18.1415C50.8937 18.0871 50.8376 18.049 50.7736 18.0352C50.7096 18.0215 50.6427 18.0331 50.5872 18.0678C50.5317 18.1024 50.4918 18.1573 50.476 18.2208C50.4262 18.4616 50.368 18.7018 50.3067 18.9447C50.3005 18.9677 50.2971 18.9912 50.2965 19.015Z" fill="black"/>
<path d="M52.4575 12.3399C52.4572 12.3644 52.4614 12.3887 52.4698 12.4117C52.5427 12.6434 52.6093 12.8833 52.6648 13.1196C52.6805 13.1846 52.7214 13.2407 52.7785 13.2756C52.8355 13.3104 52.9041 13.3212 52.9691 13.3055C53.0341 13.2898 53.0902 13.2489 53.125 13.1919C53.1599 13.1348 53.1707 13.0662 53.155 13.0012C53.0945 12.7532 53.0258 12.5019 52.9481 12.2584C52.9275 12.1952 52.8828 12.1426 52.8237 12.1121C52.7645 12.0817 52.6958 12.0759 52.6323 12.0959C52.5804 12.1117 52.5351 12.1441 52.5035 12.1882C52.4719 12.2323 52.4557 12.2857 52.4575 12.3399Z" fill="black"/>
<path d="M50.9881 17.925C50.9887 17.9829 51.0097 18.0387 51.0473 18.0826C51.0849 18.1266 51.1367 18.1559 51.1938 18.1655C51.2266 18.172 51.2603 18.1719 51.2931 18.1652C51.3258 18.1586 51.3569 18.1455 51.3845 18.1267C51.4122 18.1079 51.4358 18.0838 51.454 18.0558C51.4723 18.0278 51.4847 17.9964 51.4907 17.9635C51.5358 17.7082 51.5778 17.4556 51.6084 17.205C51.611 17.142 51.5898 17.0803 51.5491 17.0321C51.5084 16.9838 51.4511 16.9527 51.3885 16.9447C51.326 16.9366 51.2627 16.9524 51.2111 16.9888C51.1596 17.0252 51.1236 17.0796 51.1103 17.1413C51.0803 17.3834 51.0416 17.6277 50.9971 17.8745C50.9913 17.8907 50.9883 17.9078 50.9881 17.925Z" fill="black"/>
<path d="M52.3318 13.5944L52.3292 13.634C52.3731 13.8752 52.4111 14.1189 52.4406 14.362C52.4444 14.3947 52.4547 14.4263 52.4707 14.455C52.4867 14.4837 52.5083 14.509 52.5341 14.5294C52.5599 14.5498 52.5895 14.5649 52.6211 14.5739C52.6528 14.5828 52.6859 14.5855 52.7185 14.5817C52.7512 14.5778 52.7828 14.5676 52.8115 14.5516C52.8402 14.5355 52.8655 14.514 52.8859 14.4882C52.9063 14.4624 52.9214 14.4328 52.9304 14.4011C52.9394 14.3695 52.942 14.3364 52.9382 14.3037C52.9094 14.0493 52.8695 13.7913 52.8233 13.5414C52.8122 13.4786 52.7777 13.4224 52.7268 13.384C52.6759 13.3457 52.6123 13.3281 52.5489 13.3347C52.4855 13.3414 52.427 13.3718 52.3851 13.4199C52.3433 13.468 52.3212 13.5302 52.3233 13.5939L52.3318 13.5944Z" fill="black"/>
<path d="M51.6005 16.7817C51.6048 16.844 51.6321 16.9025 51.6771 16.9458C51.7221 16.9891 51.7816 17.0142 51.844 17.0161C51.9064 17.0181 51.9674 16.9968 52.015 16.9564C52.0626 16.916 52.0935 16.8593 52.1017 16.7974C52.1185 16.5402 52.1353 16.2831 52.1517 16.0316C52.1531 15.965 52.1283 15.9004 52.0827 15.8518C52.0371 15.8032 51.9742 15.7744 51.9076 15.7716C51.8747 15.7702 51.8418 15.7754 51.8108 15.7867C51.7799 15.7981 51.7515 15.8156 51.7273 15.838C51.7031 15.8604 51.6837 15.8875 51.67 15.9175C51.6564 15.9475 51.6488 15.9799 51.6478 16.0129C51.6319 16.2559 51.6159 16.5018 51.5997 16.7504C51.5985 16.7608 51.5988 16.7713 51.6005 16.7817Z" fill="black"/>
<path d="M52.0501 14.8303C52.0655 15.0725 52.0748 15.32 52.0786 15.5672C52.0786 15.6 52.0851 15.6325 52.0977 15.6628C52.1103 15.6931 52.1288 15.7206 52.1521 15.7437C52.1754 15.7669 52.203 15.7852 52.2333 15.7976C52.2637 15.8101 52.2962 15.8164 52.3291 15.8162C52.3623 15.8162 52.3951 15.8097 52.4258 15.7969C52.4564 15.7842 52.4843 15.7655 52.5077 15.742C52.5311 15.7185 52.5497 15.6906 52.5623 15.6599C52.5749 15.6292 52.5813 15.5963 52.5811 15.5631C52.5781 15.3046 52.5693 15.0487 52.549 14.7948C52.5398 14.7329 52.508 14.6767 52.4597 14.637C52.4114 14.5972 52.3501 14.5769 52.2876 14.5799C52.2251 14.5829 52.166 14.609 52.1217 14.6532C52.0774 14.6973 52.0512 14.7564 52.048 14.8188L52.0501 14.8303Z" fill="black"/>
<path d="M54.0969 19.5638C54.0962 19.5553 54.0967 19.5468 54.0986 19.5384C54.2346 19.238 54.3596 18.9312 54.4673 18.6289C54.4933 18.5721 54.5394 18.5271 54.5967 18.5024C54.6541 18.4777 54.7185 18.4752 54.7776 18.4953C54.8367 18.5154 54.8862 18.5567 54.9166 18.6112C54.9469 18.6657 54.956 18.7296 54.942 18.7904C54.8277 19.1064 54.6991 19.4244 54.5564 19.7414C54.5321 19.803 54.4842 19.8525 54.4234 19.8788C54.3627 19.9052 54.2939 19.9063 54.2323 19.882C54.1706 19.8576 54.1212 19.8098 54.0948 19.749C54.0685 19.6882 54.0673 19.6195 54.0917 19.5578L54.0969 19.5638ZM54.9544 16.731L54.9572 16.6887C54.9759 16.6327 55.0137 16.5851 55.064 16.5542C55.1142 16.5232 55.1737 16.5109 55.2321 16.5193C55.2942 16.5297 55.3502 16.5626 55.3895 16.6118C55.4287 16.661 55.4483 16.7229 55.4446 16.7857L55.4433 16.8055C55.4404 16.8507 55.4378 16.8903 55.4348 16.9355C55.3881 17.2162 55.3254 17.5243 55.2528 17.8118C55.2445 17.8439 55.23 17.874 55.2102 17.9005C55.1903 17.927 55.1654 17.9493 55.1369 17.9661C55.1084 17.983 55.0768 17.994 55.044 17.9987C55.0112 18.0033 54.9779 18.0015 54.9458 17.9933C54.9137 17.985 54.8836 17.9705 54.8571 17.9506C54.8306 17.9308 54.8083 17.9059 54.7915 17.8773C54.7747 17.8488 54.7636 17.8173 54.7589 17.7845C54.7543 17.7517 54.7561 17.7184 54.7644 17.6863C54.8442 17.3714 54.9077 17.0525 54.9544 16.731ZM53.1363 21.3258C53.143 21.3065 53.1519 21.2881 53.1626 21.2707C53.3421 20.9987 53.5118 20.7033 53.6636 20.4209C53.6781 20.3896 53.6989 20.3617 53.7247 20.3388C53.7505 20.3158 53.7807 20.2985 53.8135 20.2877C53.8463 20.2769 53.8809 20.273 53.9153 20.2762C53.9496 20.2794 53.9829 20.2895 54.0132 20.3061C54.0434 20.3227 54.07 20.3453 54.0911 20.3725C54.1123 20.3998 54.1276 20.4311 54.1362 20.4645C54.1448 20.4979 54.1464 20.5327 54.141 20.5668C54.1356 20.6009 54.1232 20.6334 54.1047 20.6625C53.9467 20.953 53.7826 21.2488 53.5875 21.5425C53.5545 21.5947 53.5034 21.6329 53.4441 21.6499C53.3847 21.6669 53.3212 21.6615 53.2655 21.6348C53.2099 21.6081 53.166 21.5618 53.1421 21.5049C53.1183 21.4479 53.1162 21.3842 53.1363 21.3258ZM55.065 14.6894C55.0841 14.6346 55.1216 14.588 55.1711 14.5576C55.2206 14.5272 55.2791 14.5148 55.3367 14.5226C55.3943 14.5303 55.4474 14.5578 55.4871 14.6002C55.5268 14.6426 55.5506 14.6975 55.5544 14.7554C55.5719 15.0971 55.572 15.4433 55.5555 15.7828C55.5449 15.8441 55.512 15.8993 55.4631 15.9378C55.4142 15.9763 55.3528 15.9953 55.2907 15.9913C55.2286 15.9872 55.1703 15.9604 55.1268 15.9158C55.0833 15.8713 55.0579 15.8123 55.0553 15.7501C55.0764 15.428 55.0695 15.0984 55.0538 14.7738C55.0516 14.7452 55.0554 14.7165 55.065 14.6894ZM51.9713 22.958C51.98 22.9299 51.9943 22.9039 52.0132 22.8813C52.2238 22.6113 52.4259 22.3407 52.6124 22.0918C52.6524 22.0404 52.7107 22.0064 52.7752 21.997C52.8397 21.9877 52.9053 22.0036 52.9582 22.0416C53.0112 22.0796 53.0474 22.1366 53.0592 22.2006C53.0711 22.2647 53.0576 22.3309 53.0217 22.3853C52.8281 22.6564 52.6203 22.9266 52.4012 23.1961C52.3811 23.2222 52.3558 23.244 52.3271 23.2602C52.2983 23.2763 52.2666 23.2866 52.2338 23.2903C52.201 23.2939 52.1678 23.291 52.1362 23.2816C52.1045 23.2722 52.0751 23.2565 52.0496 23.2356C52.0076 23.2044 51.9768 23.1605 51.9617 23.1105C51.9465 23.0604 51.9479 23.0069 51.9656 22.9576L51.9713 22.958ZM54.7594 12.72C54.8948 12.9502 55.0126 13.1877 55.1444 13.429C55.2298 13.5992 55.3125 13.7663 55.3949 13.9391C55.3554 13.9822 55.3026 14.0107 55.2449 14.0201C55.1789 14.0294 55.1119 14.0124 55.0582 13.9728C55.0046 13.9333 54.9686 13.8742 54.9579 13.8084C54.9106 13.4904 54.8436 13.1682 54.7652 12.8481C54.752 12.8066 54.75 12.7624 54.7594 12.72ZM50.6439 24.469C50.6559 24.4348 50.6743 24.4033 50.6982 24.3761C50.872 24.1916 51.0462 24.0015 51.2175 23.8112L51.3678 23.6394C51.3897 23.6146 51.4163 23.5943 51.4461 23.5797C51.4758 23.5652 51.5082 23.5566 51.5412 23.5546C51.608 23.5504 51.6737 23.5729 51.7239 23.6172C51.7741 23.6615 51.8046 23.7239 51.8088 23.7907C51.8129 23.8575 51.7904 23.9232 51.7461 23.9734L51.5902 24.1448C51.4156 24.3406 51.2413 24.5335 51.0645 24.7206C51.0187 24.7691 50.9556 24.7974 50.889 24.7994C50.8224 24.8015 50.7577 24.777 50.7091 24.7315C50.6738 24.6988 50.6488 24.6566 50.6372 24.61C50.6257 24.5633 50.628 24.5143 50.6439 24.469ZM49.2211 25.8772C49.2327 25.837 49.2557 25.8011 49.2874 25.7737C49.5262 25.551 49.7684 25.3171 50.0051 25.0828C50.0535 25.0432 50.1149 25.023 50.1774 25.0262C50.2398 25.0293 50.2989 25.0556 50.3431 25.0999C50.3873 25.1442 50.4134 25.2033 50.4164 25.2658C50.4194 25.3283 50.399 25.3896 50.3593 25.4379C50.1195 25.6777 49.8742 25.9142 49.6294 26.1423C49.5882 26.1794 49.5359 26.2019 49.4806 26.2062C49.4253 26.2106 49.3701 26.1966 49.3236 26.1664C49.2771 26.1362 49.2418 26.0915 49.2233 26.0392C49.2047 25.9869 49.204 25.93 49.2211 25.8772ZM47.7019 27.1969C47.7178 27.1521 47.7459 27.1127 47.7831 27.083C48.0379 26.8755 48.2958 26.6625 48.5455 26.4461C48.5698 26.4214 48.599 26.402 48.6313 26.3891C48.6635 26.3762 48.698 26.3701 48.7327 26.3712C48.7674 26.3722 48.8015 26.3805 48.8329 26.3954C48.8642 26.4102 48.8922 26.4314 48.915 26.4576C48.9378 26.4838 48.9549 26.5144 48.9653 26.5475C48.9757 26.5806 48.9792 26.6155 48.9755 26.65C48.9717 26.6845 48.9609 26.7179 48.9437 26.748C48.9265 26.7782 48.9033 26.8044 48.8754 26.8252C48.6197 27.0469 48.3586 27.2653 48.0952 27.4752C48.043 27.5162 47.9768 27.535 47.9109 27.5275C47.845 27.52 47.7847 27.4868 47.7431 27.4351C47.7166 27.4022 47.6989 27.363 47.6917 27.3214C47.6845 27.2797 47.688 27.2369 47.7019 27.1969ZM46.0859 28.3911C46.1019 28.3379 46.136 28.2919 46.1823 28.2612C46.4524 28.0802 46.7262 27.8852 46.9945 27.6871C47.0486 27.6486 47.1155 27.6327 47.1811 27.6428C47.2467 27.653 47.3057 27.6882 47.3457 27.7412C47.3849 27.795 47.4012 27.8622 47.391 27.928C47.3809 27.9938 47.3451 28.0529 47.2916 28.0924C47.0202 28.2932 46.7406 28.4906 46.4617 28.6767C46.4346 28.6954 46.4041 28.7085 46.372 28.7153C46.3398 28.7221 46.3066 28.7225 46.2743 28.7164C46.242 28.7104 46.2112 28.698 46.1837 28.6799C46.1562 28.6619 46.1325 28.6386 46.1141 28.6114C46.0934 28.5796 46.0802 28.5435 46.0753 28.5059C46.0704 28.4683 46.0739 28.43 46.0857 28.3939L46.0859 28.3911ZM44.3717 29.437C44.3809 29.407 44.396 29.3792 44.4161 29.3552C44.4362 29.3312 44.4609 29.3114 44.4887 29.2971C44.7827 29.1403 45.0773 28.9751 45.3479 28.7856C45.3759 28.7628 45.4086 28.7462 45.4436 28.7371C45.4786 28.728 45.5151 28.7266 45.5507 28.7328C45.5864 28.7391 45.6202 28.753 45.65 28.7735C45.6798 28.794 45.7048 28.8207 45.7233 28.8518C45.7419 28.8828 45.7535 28.9175 45.7575 28.9535C45.7614 28.9894 45.7576 29.0258 45.7463 29.0601C45.7349 29.0945 45.7163 29.126 45.6917 29.1525C45.6671 29.179 45.6371 29.1999 45.6037 29.2138C45.3084 29.3903 45.0135 29.5612 44.7191 29.7236C44.6608 29.755 44.5925 29.7623 44.529 29.7438C44.4654 29.7253 44.4116 29.6826 44.3793 29.6248C44.3537 29.5663 44.3509 29.5003 44.3716 29.4398L44.3717 29.437ZM42.5637 30.3121C42.5747 30.278 42.5929 30.2467 42.6172 30.2203C42.6414 30.194 42.6711 30.1733 42.7042 30.1596C42.9962 30.0339 43.3089 29.8954 43.6076 29.7532C43.6372 29.7384 43.6694 29.7297 43.7024 29.7276C43.7354 29.7254 43.7685 29.7299 43.7997 29.7406C43.831 29.7514 43.8598 29.7682 43.8845 29.7902C43.9091 29.8122 43.9292 29.8389 43.9434 29.8687C43.9722 29.9289 43.9758 29.9981 43.9536 30.061C43.9314 30.1239 43.8852 30.1755 43.825 30.2044C43.5316 30.3526 43.2074 30.4932 42.8981 30.6234C42.8542 30.6421 42.8058 30.6478 42.7587 30.6398C42.7116 30.6317 42.6678 30.6103 42.6326 30.5781C42.5973 30.5459 42.572 30.5043 42.5598 30.4581C42.5475 30.412 42.5487 30.3633 42.5634 30.3178L42.5637 30.3121ZM40.6719 30.9945C40.6845 30.9564 40.7063 30.922 40.7353 30.8942C40.7643 30.8664 40.7997 30.8461 40.8383 30.8351C41.1535 30.7451 41.4696 30.6408 41.7805 30.5306C41.8433 30.5081 41.9125 30.5114 41.9729 30.5398C42.0333 30.5682 42.0799 30.6194 42.1026 30.6822C42.1242 30.7453 42.1201 30.8145 42.0912 30.8747C42.0623 30.9349 42.011 30.9813 41.9482 31.0041C41.6287 31.1166 41.3011 31.2229 40.9801 31.3155C40.916 31.3342 40.8471 31.3267 40.7886 31.2946C40.73 31.2626 40.6866 31.2087 40.6677 31.1447C40.6534 31.0954 40.6549 31.0429 40.6719 30.9945ZM38.7107 31.4341C38.7255 31.3902 38.7521 31.3513 38.7876 31.3216C38.8231 31.2919 38.866 31.2725 38.9118 31.2656C39.2329 31.2156 39.5604 31.1547 39.8829 31.0821C39.9151 31.0746 39.9484 31.0736 39.981 31.0792C40.0135 31.0847 40.0446 31.0967 40.0725 31.1143C40.1004 31.132 40.1245 31.155 40.1434 31.1821C40.1623 31.2091 40.1757 31.2397 40.1827 31.2719C40.1905 31.3043 40.1916 31.3379 40.1861 31.3707C40.1805 31.4035 40.1684 31.4349 40.1504 31.4629C40.1324 31.4909 40.1089 31.5149 40.0813 31.5336C40.0538 31.5523 40.0227 31.5652 39.99 31.5715C39.6588 31.6463 39.3198 31.7093 38.9873 31.7614C38.9547 31.7668 38.9213 31.7657 38.8892 31.7581C38.857 31.7505 38.8267 31.7365 38.8 31.7171C38.7732 31.6977 38.7506 31.6731 38.7335 31.6449C38.7164 31.6166 38.705 31.5852 38.7001 31.5525C38.6952 31.5127 38.6988 31.4724 38.7107 31.4341ZM36.7132 31.6044C36.7306 31.5557 36.7624 31.5134 36.8044 31.4832C36.8464 31.453 36.8966 31.4363 36.9484 31.4354C37.2752 31.4283 37.6054 31.413 37.9336 31.3833C37.9666 31.3804 37.9998 31.3841 38.0314 31.3941C38.063 31.404 38.0923 31.4201 38.1176 31.4414C38.143 31.4627 38.1639 31.4887 38.1792 31.5181C38.1945 31.5475 38.2038 31.5796 38.2067 31.6126C38.2096 31.6455 38.2059 31.6788 38.196 31.7103C38.186 31.7419 38.1699 31.7712 38.1486 31.7966C38.1273 31.8219 38.1013 31.8428 38.0719 31.8581C38.0425 31.8734 38.0104 31.8827 37.9775 31.8856C37.6379 31.9145 37.2934 31.9318 36.9555 31.9352C36.9214 31.9378 36.8872 31.9333 36.8549 31.922C36.8226 31.9107 36.793 31.8929 36.7679 31.8698C36.7428 31.8466 36.7227 31.8184 36.709 31.7872C36.6952 31.7559 36.688 31.7221 36.6879 31.6879C36.6895 31.6532 36.6975 31.6191 36.7114 31.5873L36.7132 31.6044ZM34.7143 31.491C34.7324 31.436 34.7693 31.3891 34.8185 31.3586C34.8677 31.3281 34.9261 31.3158 34.9834 31.3241C35.3071 31.3651 35.6371 31.3952 35.9651 31.4137C36.0318 31.4181 36.094 31.4488 36.1381 31.499C36.1822 31.5492 36.2045 31.6149 36.2002 31.6816C36.1958 31.7483 36.1652 31.8106 36.1149 31.8546C36.0647 31.8987 35.999 31.921 35.9323 31.9167C35.5932 31.8946 35.2513 31.8722 34.9169 31.822C34.8509 31.8133 34.7911 31.7789 34.7504 31.7263C34.7097 31.6737 34.6915 31.6071 34.6997 31.5411C34.6998 31.5199 34.7041 31.499 34.7122 31.4795L34.7143 31.491ZM32.753 31.1075C32.7546 31.103 32.7549 31.0981 32.7539 31.0934C32.7744 31.0349 32.8157 30.9859 32.87 30.956C32.9243 30.926 32.9878 30.9171 33.0482 30.931C33.3659 31.0199 33.6872 31.0976 34.0066 31.161C34.0719 31.1744 34.1292 31.2132 34.166 31.2688C34.2028 31.3243 34.216 31.3922 34.2029 31.4576C34.1969 31.4903 34.1844 31.5214 34.1662 31.5492C34.1479 31.5769 34.1242 31.6007 34.0965 31.619C34.0687 31.6373 34.0376 31.6499 34.0049 31.6559C33.9723 31.6619 33.9387 31.6612 33.9063 31.6539C33.699 31.612 33.4921 31.5644 33.2856 31.5112C33.1598 31.4831 33.0343 31.4494 32.9116 31.4159C32.8957 31.4122 32.8808 31.4054 32.8675 31.396C32.8131 31.3701 32.7701 31.3253 32.7465 31.2699C32.723 31.2145 32.7205 31.1524 32.7396 31.0953L32.753 31.1075Z" fill="black"/>
<path d="M32.8107 31.4405C32.7704 31.492 32.7518 31.5572 32.7586 31.6222C32.7655 31.6873 32.7974 31.7471 32.8476 31.7891L33.0605 31.9619C33.1898 32.0668 33.3309 32.1668 33.4489 32.271C33.4754 32.2914 33.5055 32.3063 33.5378 32.315C33.57 32.3237 33.6036 32.326 33.6367 32.3217C33.7035 32.313 33.7641 32.2781 33.8052 32.2247C33.8464 32.1714 33.8646 32.1038 33.8559 32.037C33.8472 31.9702 33.8124 31.9095 33.759 31.8684C33.6317 31.775 33.5074 31.6789 33.3834 31.58C33.3132 31.5243 33.2431 31.4687 33.1759 31.4104C33.1245 31.368 33.0583 31.3478 32.992 31.3541C32.9256 31.3604 32.8644 31.3927 32.8219 31.444L32.8107 31.4405Z" fill="black"/>
<path d="M34.0246 31.812C34.0058 31.8389 33.9926 31.8692 33.9855 31.9012C33.9785 31.9333 33.9779 31.9664 33.9837 31.9986C33.9895 32.0309 34.0016 32.0617 34.0193 32.0893C34.0371 32.1169 34.0601 32.1407 34.087 32.1594C34.2988 32.3066 34.5139 32.4455 34.7294 32.5787C34.7828 32.5962 34.8406 32.5953 34.8934 32.5761C34.9463 32.5569 34.9912 32.5207 35.0211 32.473C35.051 32.4254 35.064 32.3691 35.0582 32.3132C35.0524 32.2573 35.0281 32.2049 34.9891 32.1644C34.7817 32.0373 34.5721 31.9016 34.3685 31.7606C34.3158 31.7227 34.2503 31.7068 34.1861 31.7164C34.1219 31.726 34.0639 31.7603 34.0246 31.812Z" fill="black"/>
<path d="M35.2651 32.0604C35.2561 32.0711 35.2486 32.0831 35.2429 32.0958C35.2266 32.1244 35.216 32.1559 35.2119 32.1885C35.2078 32.2211 35.2102 32.2542 35.2189 32.2859C35.2277 32.3176 35.2426 32.3473 35.2629 32.3732C35.2831 32.3991 35.3083 32.4207 35.337 32.4368C35.5615 32.5622 35.7892 32.682 36.0175 32.7934C36.0746 32.8246 36.1417 32.8322 36.2044 32.8145C36.2671 32.7969 36.3203 32.7554 36.3528 32.6989C36.3814 32.639 36.3854 32.5703 36.3641 32.5074C36.3427 32.4446 36.2977 32.3925 36.2386 32.3623C36.0186 32.2543 35.7964 32.1376 35.5828 32.0187C35.5332 31.9877 35.4744 31.975 35.4165 31.9826C35.3585 31.9902 35.305 32.0177 35.2651 32.0604Z" fill="black"/>
<path d="M36.5235 32.2192C36.5088 32.2352 36.497 32.2536 36.4888 32.2737C36.4619 32.3348 36.4604 32.4041 36.4845 32.4663C36.5086 32.5285 36.5565 32.5786 36.6175 32.6056C36.8491 32.7087 37.0868 32.8065 37.322 32.8985C37.3848 32.9222 37.4544 32.9201 37.5157 32.8927C37.577 32.8654 37.625 32.815 37.6493 32.7524C37.6729 32.69 37.6707 32.6208 37.6433 32.5599C37.6159 32.4991 37.5655 32.4516 37.5031 32.4279C37.276 32.3421 37.044 32.2447 36.8207 32.145C36.7699 32.1225 36.7132 32.1176 36.6593 32.1311C36.6055 32.1445 36.5577 32.1755 36.5235 32.2192Z" fill="black"/>
<path d="M37.7898 32.248C37.7704 32.2702 37.7561 32.2964 37.7479 32.3247C37.7263 32.3876 37.7306 32.4565 37.7596 32.5163C37.7887 32.5762 37.8402 32.6221 37.903 32.6441C38.1446 32.7251 38.3893 32.8007 38.6345 32.8706C38.6661 32.8796 38.6992 32.8822 38.7319 32.8784C38.7646 32.8746 38.7962 32.8643 38.8249 32.8483C38.8536 32.8322 38.8789 32.8107 38.8993 32.7849C38.9197 32.7591 38.9348 32.7295 38.9437 32.6979C38.9527 32.6662 38.9553 32.6331 38.9515 32.6004C38.9477 32.5678 38.9374 32.5362 38.9214 32.5075C38.9053 32.4787 38.8838 32.4535 38.858 32.4331C38.8322 32.4127 38.8026 32.3976 38.771 32.3886C38.5369 32.3223 38.2978 32.2471 38.0647 32.1666C38.0161 32.1498 37.9635 32.1486 37.9142 32.1632C37.8649 32.1778 37.8214 32.2074 37.7898 32.248Z" fill="black"/>
<path d="M39.0552 32.1632C39.0328 32.1928 39.0162 32.2264 39.0062 32.2622C38.9922 32.3259 39.0037 32.3925 39.0383 32.4479C39.0728 32.5032 39.1278 32.5427 39.1912 32.558C39.4369 32.6194 39.6888 32.6728 39.9411 32.7205C39.9735 32.7278 40.007 32.7285 40.0397 32.7225C40.0724 32.7165 40.1035 32.7039 40.1312 32.6856C40.159 32.6672 40.1827 32.6435 40.201 32.6157C40.2192 32.588 40.2317 32.5569 40.2377 32.5242C40.2442 32.4916 40.2442 32.4581 40.2377 32.4255C40.2312 32.3929 40.2183 32.362 40.1998 32.3344C40.1813 32.3068 40.1575 32.2831 40.1298 32.2648C40.1022 32.2464 40.0711 32.2337 40.0385 32.2274C39.7947 32.1803 39.5513 32.1275 39.3139 32.0694C39.2663 32.0583 39.2165 32.0612 39.1706 32.0779C39.1247 32.0945 39.0846 32.1242 39.0552 32.1632Z" fill="black"/>
<path d="M40.3111 31.9698C40.2832 32.0037 40.2657 32.0449 40.2608 32.0886C40.2534 32.1218 40.253 32.1563 40.2597 32.1897C40.2663 32.2231 40.2798 32.2548 40.2993 32.2828C40.3188 32.3107 40.3439 32.3343 40.373 32.3521C40.4021 32.3698 40.4346 32.3813 40.4684 32.3859C40.7156 32.4247 40.9716 32.4585 41.228 32.4865C41.2939 32.4924 41.3596 32.4724 41.411 32.4308C41.4625 32.3891 41.4957 32.3291 41.5036 32.2633C41.5073 32.2304 41.5044 32.1971 41.4952 32.1652C41.486 32.1334 41.4706 32.1037 41.4499 32.0778C41.4292 32.052 41.4035 32.0305 41.3745 32.0145C41.3455 31.9986 41.3135 31.9885 41.2806 31.9849C41.0319 31.9686 40.7849 31.927 40.5462 31.8887C40.5034 31.881 40.4593 31.8844 40.4181 31.8986C40.3769 31.9128 40.3401 31.9373 40.3111 31.9698Z" fill="black"/>
<path d="M41.5479 31.6732C41.5156 31.7124 41.4965 31.7608 41.4934 31.8115C41.4909 31.8444 41.4949 31.8774 41.5053 31.9087C41.5156 31.94 41.5321 31.969 41.5537 31.9939C41.5753 32.0188 41.6016 32.0392 41.6311 32.0538C41.6606 32.0685 41.6928 32.0771 41.7257 32.0793C41.98 32.0959 42.2371 32.1126 42.4886 32.1291C42.551 32.1245 42.6095 32.0969 42.6526 32.0517C42.6958 32.0064 42.7206 31.9467 42.7222 31.8842C42.7238 31.8216 42.7021 31.7607 42.6613 31.7133C42.6205 31.6659 42.5635 31.6354 42.5015 31.6276C42.2585 31.6118 42.0098 31.5955 41.764 31.5795C41.7229 31.5753 41.6815 31.5817 41.6437 31.5981C41.6058 31.6145 41.5728 31.6404 41.5479 31.6732Z" fill="black"/>
<path d="M42.7522 31.2779C42.7221 31.3145 42.7032 31.359 42.6975 31.406C42.6918 31.453 42.6996 31.5007 42.7201 31.5434C42.7405 31.5861 42.7727 31.6222 42.8129 31.6472C42.8531 31.6723 42.8996 31.6854 42.9469 31.6851C43.2023 31.6847 43.4553 31.6785 43.7114 31.6669C43.7467 31.6691 43.782 31.6638 43.8151 31.6515C43.8482 31.6392 43.8784 31.62 43.9036 31.5953C43.9288 31.5706 43.9486 31.5409 43.9615 31.508C43.9745 31.4752 43.9805 31.44 43.979 31.4047C43.9775 31.3694 43.9686 31.3348 43.9529 31.3032C43.9371 31.2715 43.915 31.2436 43.8877 31.2211C43.8605 31.1986 43.8288 31.182 43.7948 31.1726C43.7608 31.1631 43.7252 31.1609 43.6902 31.166C43.4397 31.1781 43.1926 31.1818 42.9457 31.1827C42.9084 31.1833 42.8717 31.1921 42.8382 31.2086C42.8047 31.225 42.7754 31.2487 42.7522 31.2779Z" fill="black"/>
<path d="M43.9287 30.7956C43.89 30.8455 43.8709 30.9078 43.8747 30.9708C43.8795 31.0373 43.9105 31.0992 43.9608 31.1429C44.0111 31.1866 44.0767 31.2086 44.1432 31.204C44.3969 31.1865 44.651 31.1634 44.9028 31.1316C44.9355 31.128 44.9671 31.1179 44.9959 31.1021C45.0246 31.0862 45.05 31.0648 45.0705 31.0391C45.091 31.0135 45.1063 30.984 45.1154 30.9524C45.1246 30.9209 45.1274 30.8878 45.1237 30.8552C45.1201 30.8225 45.1101 30.7909 45.0942 30.7621C45.0783 30.7333 45.0569 30.708 45.0313 30.6874C45.0056 30.6669 44.9761 30.6517 44.9446 30.6425C44.913 30.6334 44.88 30.6306 44.8473 30.6342C44.5985 30.6634 44.3531 30.6842 44.1079 30.7023C44.0733 30.7053 44.0397 30.7151 44.009 30.7311C43.9782 30.7471 43.951 30.769 43.9287 30.7956Z" fill="black"/>
<path d="M45.0718 30.2376C45.0502 30.2637 45.0345 30.2941 45.0255 30.3268C45.0165 30.3594 45.0145 30.3936 45.0197 30.4271C45.0286 30.4906 45.0616 30.5481 45.1119 30.5879C45.1621 30.6276 45.2257 30.6465 45.2895 30.6405C45.5415 30.6059 45.791 30.5654 46.0435 30.5223C46.0779 30.5183 46.111 30.5072 46.1409 30.4897C46.1707 30.4722 46.1966 30.4487 46.2168 30.4207C46.2371 30.3927 46.2513 30.3607 46.2585 30.3269C46.2657 30.2931 46.2658 30.2581 46.2588 30.2242C46.2476 30.1584 46.2108 30.0998 46.1564 30.0611C46.102 30.0225 46.0344 30.007 45.9686 30.018C45.7216 30.0643 45.4779 30.1023 45.2346 30.1347C45.2019 30.14 45.1707 30.1519 45.1427 30.1695C45.1147 30.1872 45.0906 30.2103 45.0718 30.2376Z" fill="black"/>
<path d="M46.1771 29.603C46.1428 29.644 46.1223 29.6949 46.1188 29.7483C46.1153 29.8016 46.1288 29.8547 46.1575 29.8999C46.1861 29.945 46.2284 29.9799 46.2782 29.9994C46.328 30.019 46.3827 30.0222 46.4344 30.0086L47.1772 29.8443C47.2393 29.8263 47.2921 29.7851 47.3247 29.7293C47.3574 29.6735 47.3673 29.6073 47.3524 29.5443C47.3376 29.4814 47.2991 29.4266 47.245 29.3912C47.1909 29.3559 47.1253 29.3426 47.0617 29.3543C46.8167 29.4121 46.5747 29.4672 46.3331 29.5167C46.2718 29.5239 46.2157 29.5549 46.1771 29.603Z" fill="black"/>
<path d="M47.2414 28.9065C47.2176 28.9376 47.2012 28.9736 47.1933 29.0119C47.1854 29.0502 47.1862 29.0898 47.1957 29.1277C47.2039 29.1596 47.2183 29.1897 47.2382 29.216C47.258 29.2423 47.2829 29.2645 47.3114 29.2811C47.3399 29.2977 47.3714 29.3086 47.4041 29.3129C47.4368 29.3173 47.47 29.3152 47.5018 29.3066C47.7472 29.2431 47.9899 29.1767 48.236 29.102C48.2993 29.0831 48.3525 29.0399 48.384 28.9818C48.4154 28.9238 48.4226 28.8556 48.4038 28.7922C48.3849 28.7282 48.3415 28.6743 48.2829 28.6423C48.2243 28.6103 48.1555 28.6028 48.0914 28.6215C47.854 28.6939 47.6143 28.7577 47.3746 28.8215C47.3222 28.8348 47.2755 28.8646 47.2414 28.9065Z" fill="black"/>
<path d="M48.269 28.1535C48.2434 28.1864 48.226 28.2249 48.2184 28.2659C48.2108 28.3069 48.2131 28.3491 48.2252 28.389C48.2458 28.4523 48.2905 28.5049 48.3496 28.5353C48.4088 28.5657 48.4775 28.5716 48.541 28.5515C48.7825 28.4746 49.0231 28.3957 49.263 28.3149C49.2967 28.306 49.3282 28.2902 49.3555 28.2685C49.3827 28.2469 49.4052 28.2198 49.4215 28.1889C49.4378 28.1581 49.4475 28.1243 49.45 28.0895C49.4526 28.0548 49.4479 28.0199 49.4363 27.987C49.4246 27.9542 49.4063 27.9241 49.3824 27.8987C49.3586 27.8733 49.3297 27.8531 49.2977 27.8394C49.2657 27.8257 49.2311 27.8188 49.1963 27.8192C49.1614 27.8195 49.127 27.8271 49.0953 27.8414C48.8601 27.9225 48.625 28.0036 48.3874 28.0789C48.3417 28.0921 48.3006 28.118 48.269 28.1535Z" fill="black"/>
<path d="M49.259 27.3497C49.2316 27.3834 49.2136 27.4238 49.2068 27.4667C49.2 27.5096 49.2047 27.5535 49.2204 27.5941C49.2316 27.6251 49.2488 27.6537 49.2712 27.678C49.2935 27.7024 49.3204 27.722 49.3504 27.7359C49.3804 27.7497 49.4128 27.7575 49.4459 27.7586C49.4789 27.7598 49.5118 27.7544 49.5427 27.7428C49.7775 27.6522 50.0134 27.5598 50.2504 27.4655C50.3118 27.4405 50.3608 27.3922 50.3867 27.3311C50.4125 27.27 50.4129 27.2011 50.388 27.1396C50.363 27.0782 50.3147 27.0291 50.2535 27.0033C50.1924 26.9775 50.1236 26.9771 50.0621 27.002C49.829 27.0946 49.599 27.1846 49.3663 27.2716C49.3241 27.2874 49.2871 27.3144 49.259 27.3497Z" fill="black"/>
<path d="M50.2076 26.5093C50.1731 26.5532 50.1542 26.6072 50.1538 26.663C50.1534 26.7188 50.1715 26.7731 50.2052 26.8175C50.239 26.8619 50.2865 26.8938 50.3404 26.9083C50.3943 26.9227 50.4514 26.9189 50.5029 26.8975C50.7335 26.799 50.9643 26.6977 51.1954 26.5908C51.2258 26.5776 51.2532 26.5584 51.276 26.5344C51.2988 26.5103 51.3165 26.4819 51.328 26.4509C51.3396 26.4199 51.3448 26.3868 51.3433 26.3537C51.3418 26.3207 51.3336 26.2882 51.3193 26.2584C51.2914 26.1981 51.2408 26.1512 51.1786 26.128C51.1163 26.1048 51.0474 26.1072 50.9869 26.1345C50.7587 26.2388 50.5307 26.3403 50.3032 26.4361C50.2664 26.4533 50.2338 26.4783 50.2076 26.5093Z" fill="black"/>
<path d="M51.117 25.6068C51.0886 25.6446 51.0719 25.6898 51.0688 25.737C51.0657 25.7841 51.0764 25.8312 51.0996 25.8724C51.1136 25.902 51.1334 25.9286 51.1577 25.9506C51.1821 25.9726 51.2105 25.9896 51.2415 26.0006C51.2724 26.0116 51.3052 26.0164 51.3379 26.0146C51.3707 26.0129 51.4028 26.0047 51.4324 25.9906C51.6609 25.8806 51.8866 25.7705 52.1155 25.6549C52.1745 25.624 52.2191 25.5712 52.2397 25.5079C52.2603 25.4445 52.2552 25.3756 52.2256 25.3159C52.2112 25.2844 52.1905 25.2563 52.1648 25.2331C52.1391 25.21 52.1088 25.1924 52.076 25.1815C52.0432 25.1706 52.0084 25.1665 51.974 25.1696C51.9395 25.1727 51.906 25.1828 51.8757 25.1994C51.6527 25.3116 51.4298 25.4219 51.2071 25.5303C51.1713 25.5481 51.1404 25.5743 51.117 25.6068Z" fill="black"/>
<path d="M51.9901 24.6762C51.9591 24.7161 51.9408 24.7643 51.9375 24.8147C51.9342 24.8651 51.9461 24.9153 51.9717 24.9588C52.003 25.0168 52.056 25.06 52.1191 25.0791C52.1822 25.0981 52.2503 25.0913 52.3084 25.0602L52.4229 25.0024C52.6111 24.9012 52.7967 24.797 52.9766 24.6924C53.0051 24.6756 53.03 24.6534 53.0499 24.627C53.0698 24.6006 53.0843 24.5705 53.0926 24.5385C53.1009 24.5065 53.1028 24.4732 53.0982 24.4405C53.0936 24.4078 53.0826 24.3762 53.0658 24.3478C53.049 24.3193 53.0268 24.2944 53.0004 24.2745C52.974 24.2546 52.944 24.2401 52.9119 24.2318C52.8799 24.2235 52.8466 24.2216 52.8139 24.2262C52.7812 24.2308 52.7496 24.2418 52.7212 24.2586C52.5442 24.3605 52.3647 24.4595 52.1795 24.5581L52.0677 24.6189C52.0387 24.6334 52.0125 24.6528 51.9901 24.6762Z" fill="black"/>
<path d="M52.8108 23.7053C52.7801 23.7453 52.762 23.7935 52.7587 23.8438C52.7554 23.8941 52.7671 23.9443 52.7923 23.9879C52.8279 24.0443 52.8843 24.0843 52.9493 24.0992C53.0142 24.1141 53.0825 24.1026 53.139 24.0673C53.3607 23.9314 53.5741 23.7921 53.7821 23.6496C53.8126 23.6324 53.8392 23.609 53.8602 23.5809C53.8812 23.5529 53.8961 23.5208 53.9039 23.4866C53.9118 23.4525 53.9125 23.4171 53.9059 23.3827C53.8993 23.3483 53.8857 23.3156 53.8658 23.2868C53.8459 23.258 53.8202 23.2336 53.7903 23.2153C53.7605 23.1969 53.7271 23.185 53.6924 23.1803C53.6577 23.1755 53.6224 23.1781 53.5887 23.1878C53.5551 23.1975 53.5238 23.2141 53.4969 23.2365C53.2978 23.3739 53.0885 23.4936 52.8745 23.6414C52.85 23.6592 52.8285 23.6807 52.8108 23.7053Z" fill="black"/>
<path d="M55.7204 16.0347C55.6993 16.0605 55.6838 16.0904 55.675 16.1225C55.6058 16.3564 55.5281 16.5897 55.4424 16.8168C55.4197 16.8796 55.4226 16.9489 55.4505 17.0096C55.4784 17.0704 55.529 17.1177 55.5914 17.1415C55.6224 17.153 55.6553 17.1584 55.6882 17.1571C55.7212 17.1559 55.7536 17.1481 55.7836 17.1342C55.8135 17.1203 55.8404 17.1006 55.8627 17.0762C55.885 17.0519 55.9022 17.0233 55.9133 16.9922C56.0027 16.754 56.0869 16.507 56.1568 16.2618C56.1754 16.2056 56.1733 16.1447 56.1511 16.0899C56.1288 16.035 56.0877 15.9899 56.0352 15.9626C55.9828 15.9353 55.9223 15.9276 55.8646 15.9408C55.8069 15.954 55.7558 15.9873 55.7204 16.0347Z" fill="black"/>
<path d="M53.5534 22.6783C53.5175 22.7202 53.4962 22.7725 53.4926 22.8276C53.489 22.8826 53.5033 22.9373 53.5335 22.9835C53.5734 23.0367 53.6328 23.0719 53.6986 23.0815C53.7644 23.0911 53.8314 23.0743 53.8849 23.0348C54.0935 22.881 54.2967 22.724 54.4832 22.5631C54.5086 22.5422 54.5296 22.5165 54.5451 22.4875C54.5606 22.4585 54.5702 22.4267 54.5734 22.3939C54.5766 22.3612 54.5733 22.3282 54.5637 22.2967C54.5541 22.2653 54.5384 22.236 54.5176 22.2106C54.4967 22.1852 54.471 22.1642 54.442 22.1487C54.4129 22.1332 54.3812 22.1236 54.3484 22.1204C54.3157 22.1172 54.2827 22.1205 54.2512 22.1301C54.2197 22.1397 54.1905 22.1553 54.1651 22.1762C53.9792 22.3287 53.7818 22.4832 53.582 22.6319C53.5713 22.6467 53.5618 22.6622 53.5534 22.6783Z" fill="black"/>
<path d="M55.7196 17.3286C55.7061 17.3461 55.6953 17.3655 55.6874 17.3861C55.5877 17.6094 55.4824 17.8324 55.3606 18.0458C55.3338 18.1042 55.3304 18.1706 55.351 18.2315C55.3716 18.2924 55.4147 18.3431 55.4715 18.3732C55.5282 18.4034 55.5943 18.4107 55.6563 18.3938C55.7183 18.3768 55.7714 18.3368 55.8049 18.2819C55.9247 18.0542 56.0393 17.8205 56.1341 17.5855C56.1567 17.5299 56.1587 17.4682 56.1398 17.4113C56.1209 17.3544 56.0824 17.3061 56.0311 17.275C55.9798 17.244 55.9191 17.2323 55.8599 17.2419C55.8008 17.2516 55.747 17.2821 55.7083 17.3278L55.7196 17.3286Z" fill="black"/>
<path d="M54.2033 21.5884C54.1662 21.6379 54.1486 21.6992 54.1538 21.7608C54.1591 21.8224 54.1867 21.88 54.2316 21.9225C54.2765 21.965 54.3354 21.9896 54.3972 21.9914C54.459 21.9933 54.5193 21.9725 54.5667 21.9328C54.7596 21.7609 54.9471 21.583 55.1236 21.4016C55.1633 21.353 55.1835 21.2913 55.1802 21.2286C55.1769 21.1659 55.1502 21.1067 55.1055 21.0626C55.0608 21.0185 55.0013 20.9926 54.9385 20.9901C54.8758 20.9876 54.8144 21.0087 54.7663 21.0491C54.5961 21.2224 54.4204 21.3926 54.2336 21.5592C54.2221 21.5674 54.2119 21.5772 54.2033 21.5884Z" fill="black"/>
<path d="M55.5525 18.6287C55.5447 18.6372 55.5374 18.6462 55.5309 18.6557C55.4067 18.8632 55.274 19.0702 55.1333 19.2682C55.1014 19.3226 55.091 19.387 55.1042 19.4487C55.1174 19.5104 55.1533 19.5648 55.2048 19.6014C55.2562 19.6379 55.3195 19.6538 55.3821 19.6459C55.4447 19.638 55.5021 19.6069 55.5429 19.5588C55.6899 19.3499 55.8318 19.1322 55.9624 18.9137C56.0002 18.8593 56.0148 18.7922 56.0031 18.727C55.9914 18.6619 55.9543 18.604 55.8999 18.5662C55.8456 18.5284 55.7785 18.5138 55.7133 18.5255C55.6481 18.5372 55.5903 18.5743 55.5525 18.6287Z" fill="black"/>
<path d="M54.7376 20.4429C54.701 20.4945 54.6851 20.558 54.6932 20.6207C54.7012 20.6835 54.7326 20.741 54.7811 20.7817C54.8296 20.8224 54.8916 20.8433 54.9548 20.8404C55.018 20.8375 55.0778 20.8109 55.1223 20.7659C55.272 20.6026 55.4279 20.4312 55.5526 20.2605L55.6176 20.1768C55.6505 20.1241 55.6628 20.0611 55.652 19.9999C55.6413 19.9387 55.6083 19.8836 55.5595 19.8452C55.5106 19.8068 55.4493 19.7879 55.3873 19.7919C55.3253 19.796 55.267 19.8229 55.2235 19.8673L55.1617 19.9456C55.0318 20.1102 54.8933 20.2742 54.7525 20.4325L54.7376 20.4429Z" fill="black"/>
<path d="M35.391 32.815C35.3888 32.8242 35.3882 32.8338 35.3891 32.8432C35.3714 32.8711 35.3594 32.9022 35.3539 32.9347C35.3483 32.9672 35.3492 33.0006 35.3566 33.0327C35.364 33.0649 35.3778 33.0953 35.397 33.1221C35.4162 33.1489 35.4406 33.1716 35.4687 33.1889C35.687 33.3224 35.9085 33.4503 36.1304 33.5727C36.16 33.5962 36.1945 33.6127 36.2314 33.6211C36.2683 33.6294 36.3066 33.6294 36.3434 33.6209C36.3803 33.6125 36.4148 33.5958 36.4443 33.5722C36.4739 33.5487 36.4977 33.5187 36.5141 33.4847C36.5306 33.4506 36.5391 33.4133 36.5391 33.3755C36.5391 33.3376 36.5307 33.3003 36.5143 33.2662C36.4979 33.2321 36.4741 33.2022 36.4446 33.1785C36.4151 33.1549 36.3806 33.1382 36.3438 33.1297C36.13 33.0136 35.914 32.8888 35.7039 32.7588C35.6533 32.7308 35.5945 32.721 35.5375 32.7313C35.4805 32.7415 35.4287 32.7711 35.391 32.815Z" fill="black"/>
<path d="M36.6345 33.0154C36.6224 33.0281 36.6128 33.0429 36.6061 33.059C36.5911 33.0884 36.5821 33.1204 36.5796 33.1533C36.5771 33.1861 36.5812 33.2192 36.5915 33.2505C36.6019 33.2818 36.6184 33.3107 36.64 33.3356C36.6616 33.3605 36.6879 33.3808 36.7175 33.3954C36.9456 33.5096 37.1768 33.6184 37.4111 33.7245C37.4711 33.7451 37.5366 33.7424 37.5946 33.7169C37.6527 33.6913 37.699 33.6448 37.7243 33.5867C37.7495 33.5285 37.752 33.463 37.7311 33.4031C37.7102 33.3432 37.6674 33.2934 37.6114 33.2637C37.3851 33.1666 37.1593 33.0611 36.9421 32.9532C36.8916 32.9262 36.8333 32.9176 36.7771 32.929C36.721 32.9403 36.6705 32.9709 36.6345 33.0154Z" fill="black"/>
<path d="M37.9073 33.0985C37.8913 33.1183 37.8784 33.1404 37.869 33.1641C37.857 33.1955 37.8516 33.229 37.853 33.2627C37.8543 33.2963 37.8625 33.3293 37.8769 33.3596C37.8914 33.39 37.9118 33.4171 37.9371 33.4394C37.9623 33.4617 37.9918 33.4786 38.0237 33.4891C38.2589 33.5811 38.503 33.668 38.7447 33.7462C38.7766 33.7583 38.8107 33.7636 38.8448 33.762C38.8788 33.7603 38.9122 33.7517 38.9428 33.7367C38.9734 33.7216 39.0006 33.7004 39.0227 33.6744C39.0448 33.6484 39.0613 33.6182 39.0712 33.5855C39.0811 33.5529 39.0842 33.5186 39.0803 33.4847C39.0764 33.4508 39.0656 33.4181 39.0486 33.3885C39.0315 33.359 39.0086 33.3332 38.9812 33.3129C38.9538 33.2926 38.9225 33.2781 38.8893 33.2704C38.656 33.1927 38.4202 33.1092 38.1933 33.0206C38.1436 33.0013 38.089 32.9984 38.0375 33.0124C37.986 33.0264 37.9404 33.0566 37.9073 33.0985Z" fill="black"/>
<path d="M39.1721 33.0646C39.1523 33.0909 39.1378 33.1208 39.1294 33.1527C39.1109 33.2165 39.1183 33.2851 39.1501 33.3436C39.1819 33.402 39.2355 33.4455 39.2992 33.4645C39.5415 33.5343 39.7927 33.5989 40.0416 33.6549C40.1042 33.6641 40.1679 33.6495 40.2202 33.6139C40.2724 33.5783 40.3094 33.5244 40.3238 33.4629C40.3382 33.4013 40.3289 33.3366 40.2978 33.2816C40.2667 33.2265 40.216 33.1852 40.1558 33.1657C39.9154 33.1103 39.6725 33.0491 39.4387 32.9799C39.3908 32.9672 39.3403 32.9684 39.293 32.9834C39.2458 32.9984 39.2039 33.0266 39.1721 33.0646Z" fill="black"/>
<path d="M40.4358 32.92C40.4098 32.9506 40.3926 32.9878 40.3862 33.0274C40.373 33.0928 40.3863 33.1607 40.4231 33.2163C40.4599 33.2718 40.5172 33.3106 40.5825 33.324C40.8319 33.3715 41.0874 33.4137 41.3404 33.4501C41.3739 33.457 41.4084 33.457 41.4419 33.45C41.4753 33.4431 41.507 33.4293 41.5349 33.4095C41.5628 33.3898 41.5864 33.3645 41.6041 33.3353C41.6218 33.3061 41.6333 33.2735 41.6379 33.2397C41.6445 33.206 41.6441 33.1714 41.6367 33.1379C41.6294 33.1044 41.6154 33.0728 41.5954 33.0449C41.5754 33.017 41.55 32.9935 41.5206 32.9758C41.4913 32.9581 41.4586 32.9466 41.4247 32.942C41.18 32.909 40.933 32.8673 40.6948 32.8206C40.6466 32.8092 40.5962 32.8126 40.5499 32.8303C40.5037 32.8481 40.4639 32.8793 40.4358 32.92Z" fill="black"/>
<path d="M41.6807 32.6666C41.6507 32.7038 41.632 32.7489 41.6268 32.7964C41.6232 32.8294 41.626 32.8627 41.6352 32.8945C41.6445 32.9264 41.6599 32.956 41.6806 32.9819C41.7013 33.0078 41.7269 33.0293 41.756 33.0453C41.785 33.0612 41.8169 33.0713 41.8499 33.0749C42.0985 33.0911 42.3556 33.1079 42.6128 33.1247C42.6476 33.1307 42.6833 33.1293 42.7176 33.1207C42.7518 33.112 42.7839 33.0962 42.8117 33.0743C42.8394 33.0525 42.8623 33.025 42.8788 32.9937C42.8952 32.9624 42.9049 32.9281 42.9072 32.8928C42.9095 32.8575 42.9044 32.8221 42.8921 32.789C42.8799 32.7558 42.8608 32.7256 42.8361 32.7003C42.8114 32.675 42.7817 32.6552 42.7488 32.6422C42.716 32.6291 42.6808 32.6231 42.6454 32.6246C42.3996 32.6085 42.1481 32.5921 41.9051 32.5762C41.8631 32.5704 41.8203 32.5757 41.7809 32.5916C41.7415 32.6074 41.707 32.6333 41.6807 32.6666Z" fill="black"/>
<path d="M42.9025 32.315C42.8678 32.3572 42.8484 32.4099 42.8473 32.4646C42.8463 32.4977 42.8517 32.5307 42.8634 32.5617C42.8751 32.5927 42.8928 32.621 42.9155 32.6452C42.9382 32.6693 42.9654 32.6888 42.9956 32.7024C43.0257 32.716 43.0583 32.7235 43.0914 32.7246C43.3429 32.741 43.5989 32.7322 43.8545 32.729C43.918 32.7236 43.9771 32.6943 44.0199 32.6471C44.0627 32.5999 44.086 32.5381 44.0852 32.4744C44.0843 32.4107 44.0593 32.3496 44.0152 32.3036C43.9711 32.2575 43.9112 32.2299 43.8476 32.2263C43.6004 32.23 43.3509 32.2279 43.1045 32.2203C43.0657 32.2191 43.0273 32.227 42.9922 32.2435C42.9571 32.2599 42.9263 32.2844 42.9025 32.315Z" fill="black"/>
<path d="M44.0887 31.8703C44.05 31.918 44.0309 31.9786 44.035 32.0399C44.0367 32.0733 44.045 32.106 44.0594 32.1361C44.0739 32.1662 44.0942 32.1932 44.1191 32.2154C44.1441 32.2377 44.1732 32.2547 44.2048 32.2656C44.2364 32.2764 44.2699 32.2809 44.3032 32.2787C44.5535 32.2695 44.81 32.2522 45.0639 32.2319C45.129 32.2245 45.1886 32.1921 45.2301 32.1415C45.2717 32.091 45.292 32.0262 45.2866 31.961C45.2813 31.8958 45.2508 31.8351 45.2016 31.792C45.1524 31.7488 45.0883 31.7265 45.0229 31.7298C44.7747 31.7505 44.5266 31.7683 44.2792 31.7777C44.2426 31.7786 44.2067 31.7873 44.1738 31.8033C44.141 31.8192 44.1119 31.8421 44.0887 31.8703Z" fill="black"/>
<path d="M45.2564 31.3449C45.2246 31.3834 45.205 31.4306 45.2003 31.4803C45.1955 31.5301 45.2059 31.5801 45.23 31.6239C45.254 31.6677 45.2907 31.7032 45.3352 31.7259C45.3797 31.7486 45.4301 31.7573 45.4796 31.7511C45.7313 31.7221 45.983 31.6903 46.2352 31.6528C46.2987 31.6408 46.3552 31.6049 46.3929 31.5524C46.4307 31.5 46.4468 31.435 46.4381 31.371C46.4335 31.3384 46.4224 31.3071 46.4056 31.2789C46.3887 31.2507 46.3664 31.2261 46.3399 31.2067C46.3134 31.1872 46.2833 31.1733 46.2513 31.1657C46.2193 31.158 46.1861 31.1569 46.1537 31.1623C45.9074 31.1973 45.6613 31.2294 45.4155 31.256C45.3533 31.265 45.2967 31.2967 45.2564 31.3449Z" fill="black"/>
<path d="M46.3706 30.7422C46.3374 30.7818 46.3173 30.8308 46.3131 30.8823C46.3089 30.9338 46.3208 30.9853 46.3472 31.0298C46.3737 31.0742 46.4132 31.1093 46.4605 31.1303C46.5077 31.1512 46.5603 31.157 46.611 31.1467C46.8579 31.1032 47.1079 31.0543 47.3584 30.9997C47.3905 30.9928 47.421 30.9797 47.448 30.9611C47.4751 30.9425 47.4982 30.9187 47.5161 30.8912C47.5339 30.8636 47.5462 30.8328 47.5522 30.8005C47.5581 30.7682 47.5577 30.7351 47.5508 30.7029C47.544 30.6708 47.5309 30.6403 47.5123 30.6133C47.4937 30.5862 47.4699 30.5631 47.4423 30.5452C47.4148 30.5274 47.384 30.5151 47.3517 30.5091C47.3194 30.5032 47.2862 30.5036 47.2541 30.5105C47.0104 30.5627 46.7662 30.6091 46.5214 30.6499C46.4621 30.6626 46.4089 30.6952 46.3706 30.7422Z" fill="black"/>
<path d="M47.4521 30.0721C47.4284 30.1021 47.4118 30.1371 47.4035 30.1743C47.3952 30.2116 47.3953 30.2503 47.404 30.2875C47.4116 30.3196 47.4255 30.3499 47.4449 30.3766C47.4642 30.4033 47.4887 30.4258 47.5169 30.443C47.5451 30.4601 47.5764 30.4715 47.609 30.4765C47.6416 30.4814 47.6749 30.4799 47.7069 30.4719C47.9519 30.4141 48.1972 30.3506 48.4456 30.2846C48.4773 30.2761 48.5071 30.2614 48.5331 30.2414C48.5591 30.2214 48.581 30.1965 48.5973 30.168C48.6137 30.1395 48.6242 30.1081 48.6284 30.0755C48.6326 30.043 48.6303 30.0099 48.6217 29.9782C48.6138 29.9456 48.5995 29.9149 48.5798 29.8878C48.56 29.8608 48.535 29.8379 48.5064 29.8204C48.4777 29.803 48.4459 29.7914 48.4128 29.7863C48.3796 29.7812 48.3458 29.7827 48.3133 29.7907C48.0734 29.8573 47.831 29.9181 47.5917 29.9763C47.5352 29.9905 47.4857 30.0245 47.4521 30.0721Z" fill="black"/>
<path d="M48.4953 29.3429C48.4699 29.3742 48.4526 29.4114 48.4451 29.451C48.4376 29.4906 48.44 29.5315 48.4521 29.57C48.4612 29.6015 48.4764 29.631 48.4968 29.6567C48.5173 29.6824 48.5427 29.7038 48.5714 29.7196C48.6002 29.7355 48.6318 29.7455 48.6645 29.7491C48.6971 29.7527 48.7301 29.7498 48.7617 29.7406C49.0047 29.6685 49.248 29.5935 49.4894 29.5043C49.5522 29.4849 49.6048 29.4414 49.6357 29.3833C49.6666 29.3253 49.6733 29.2574 49.6543 29.1944C49.6332 29.1316 49.5882 29.0797 49.5291 29.0498C49.47 29.0199 49.4015 29.0145 49.3384 29.0347C49.1006 29.1129 48.863 29.1882 48.6248 29.2719C48.5757 29.2826 48.5308 29.3073 48.4953 29.3429Z" fill="black"/>
<path d="M49.4999 28.5572C49.4733 28.5907 49.4556 28.6304 49.4484 28.6725C49.4411 28.7147 49.4447 28.758 49.4586 28.7985C49.4808 28.861 49.5267 28.9123 49.5865 28.9412C49.6462 28.97 49.7149 28.9742 49.7777 28.9527C50.0159 28.8689 50.2544 28.7795 50.4929 28.6901C50.555 28.6658 50.605 28.6181 50.6323 28.5572C50.6597 28.4964 50.6621 28.4273 50.639 28.3648C50.6273 28.3338 50.6095 28.3055 50.5868 28.2814C50.5641 28.2573 50.5369 28.2379 50.5066 28.2243C50.4764 28.2107 50.4438 28.2033 50.4107 28.2023C50.3776 28.2013 50.3447 28.2069 50.3137 28.2187C50.081 28.3057 49.8455 28.3924 49.6132 28.4737C49.5683 28.4904 49.5291 28.5193 49.4999 28.5572Z" fill="black"/>
<path d="M50.4668 27.7263C50.4385 27.7607 50.4201 27.8022 50.4137 27.8463C50.4074 27.8905 50.4132 27.9355 50.4306 27.9765C50.4429 28.007 50.4611 28.0348 50.4841 28.0582C50.5072 28.0817 50.5346 28.1004 50.5649 28.1132C50.5952 28.1259 50.6277 28.1326 50.6606 28.1328C50.6935 28.1329 50.7261 28.1266 50.7565 28.1141C50.9898 28.0177 51.2233 27.9195 51.4568 27.8193C51.5176 27.7928 51.5654 27.7432 51.5897 27.6815C51.6139 27.6197 51.6126 27.5509 51.5861 27.4901C51.5596 27.4293 51.51 27.3815 51.4483 27.3572C51.3866 27.333 51.3177 27.3342 51.2569 27.3607C51.0263 27.4592 50.7985 27.5578 50.5683 27.6506C50.528 27.6657 50.4928 27.692 50.4668 27.7263Z" fill="black"/>
<path d="M51.3913 26.8503C51.3651 26.888 51.3497 26.9321 51.3467 26.9779C51.3437 27.0237 51.3533 27.0695 51.3744 27.1103C51.3876 27.1406 51.4068 27.168 51.4308 27.1908C51.4549 27.2136 51.4832 27.2313 51.5143 27.2429C51.5453 27.2544 51.5783 27.2596 51.6114 27.2581C51.6445 27.2566 51.6769 27.2485 51.7068 27.2341C51.935 27.1298 52.1661 27.0229 52.3948 26.9101C52.4273 26.8975 52.4569 26.8783 52.4816 26.8537C52.5063 26.8291 52.5257 26.7996 52.5384 26.7671C52.5511 26.7346 52.557 26.6999 52.5556 26.665C52.5542 26.6302 52.5455 26.596 52.5302 26.5646C52.5149 26.5333 52.4933 26.5055 52.4667 26.4829C52.4401 26.4604 52.4091 26.4436 52.3756 26.4336C52.3422 26.4237 52.3071 26.4208 52.2725 26.4251C52.2379 26.4294 52.2045 26.4409 52.1746 26.4588C51.9489 26.5689 51.7234 26.6762 51.4982 26.7778C51.4571 26.7927 51.4204 26.8177 51.3913 26.8503Z" fill="black"/>
<path d="M52.2791 25.9351C52.2426 25.9797 52.2226 26.0355 52.2226 26.0932C52.2226 26.1509 52.2426 26.2067 52.2792 26.2513C52.3158 26.2959 52.3667 26.3264 52.4232 26.3376C52.4798 26.3488 52.5385 26.3401 52.5893 26.3129C52.7828 26.2177 52.9739 26.1167 53.1764 26.0135L53.2705 25.9629C53.3032 25.9495 53.3327 25.9294 53.3571 25.9038C53.3815 25.8783 53.4002 25.8479 53.4121 25.8146C53.424 25.7813 53.4288 25.746 53.4261 25.7107C53.4234 25.6755 53.4134 25.6412 53.3966 25.6102C53.3799 25.5791 53.3567 25.5518 53.3288 25.5303C53.3008 25.5087 53.2686 25.4932 53.2343 25.4849C53.2 25.4766 53.1643 25.4755 53.1295 25.4819C53.0948 25.4882 53.0617 25.5018 53.0326 25.5217L52.9385 25.5723C52.7503 25.6736 52.5594 25.7718 52.3715 25.8673C52.3359 25.8824 52.3043 25.9056 52.2791 25.9351Z" fill="black"/>
<path d="M55.9306 17.297C55.9108 17.3233 55.8963 17.3532 55.8879 17.385C55.8184 17.6245 55.7434 17.8608 55.6633 18.0883C55.6411 18.1508 55.6447 18.2196 55.6733 18.2795C55.7018 18.3393 55.753 18.3854 55.8155 18.4076C55.878 18.4297 55.9468 18.4261 56.0067 18.3975C56.0665 18.369 56.1126 18.3178 56.1348 18.2553C56.2211 18.0197 56.2997 17.7723 56.37 17.5215C56.3842 17.4594 56.3741 17.3943 56.3418 17.3394C56.3095 17.2845 56.2574 17.2441 56.1963 17.2264C56.1499 17.2115 56.1002 17.2103 56.0531 17.2228C56.006 17.2353 55.9635 17.2611 55.9306 17.297Z" fill="black"/>
<path d="M53.1208 24.9967C53.0898 25.0365 53.0715 25.0847 53.0682 25.1351C53.0649 25.1855 53.0768 25.2357 53.1024 25.2792C53.1371 25.3363 53.1928 25.3775 53.2575 25.3939C53.3222 25.4104 53.3908 25.4007 53.4485 25.3671C53.6699 25.2368 53.8852 25.1118 54.0967 24.9582C54.1474 24.9193 54.1814 24.8625 54.1918 24.7994C54.2023 24.7363 54.1883 24.6716 54.1528 24.6184C54.1173 24.5652 54.0629 24.5275 54.0007 24.5129C53.9384 24.4984 53.8729 24.508 53.8175 24.5399C53.6158 24.6743 53.4063 24.7968 53.1902 24.9331C53.1629 24.9492 53.1393 24.9709 53.1208 24.9967Z" fill="black"/>
<path d="M53.8781 23.965C53.8416 24.006 53.8198 24.058 53.8162 24.1128C53.8127 24.1676 53.8275 24.222 53.8583 24.2674C53.8776 24.2971 53.9029 24.3224 53.9326 24.3417C53.9623 24.361 53.9957 24.3738 54.0307 24.3793C54.0657 24.3848 54.1015 24.3828 54.1356 24.3736C54.1698 24.3643 54.2017 24.348 54.2291 24.3256C54.4378 24.1718 54.644 24.0122 54.8276 23.8511C54.8789 23.8089 54.9114 23.748 54.9178 23.6819C54.9243 23.6158 54.9042 23.5499 54.862 23.4986C54.8198 23.4473 54.759 23.4149 54.6929 23.4084C54.6268 23.402 54.5608 23.422 54.5095 23.4642C54.3206 23.6193 54.1263 23.7712 53.9125 23.9162C53.8991 23.931 53.8875 23.9474 53.8781 23.965Z" fill="black"/>
<path d="M55.9519 18.5924C55.9367 18.6106 55.9239 18.6308 55.914 18.6523C55.8226 18.8791 55.7198 19.105 55.6122 19.3194C55.5903 19.3776 55.5907 19.4419 55.6134 19.4999C55.636 19.5578 55.6793 19.6053 55.7349 19.6333C55.7905 19.6612 55.8545 19.6676 55.9145 19.6512C55.9746 19.6348 56.0264 19.5967 56.0601 19.5444C56.1741 19.3192 56.2804 19.0821 56.3895 18.8451C56.4144 18.7893 56.418 18.7262 56.3994 18.6679C56.3808 18.6095 56.3415 18.5601 56.2888 18.529C56.2361 18.4978 56.1738 18.4872 56.1138 18.499C56.0538 18.5108 56.0002 18.5443 55.9633 18.5931L55.9519 18.5924Z" fill="black"/>
<path d="M54.5264 22.8779C54.4885 22.924 54.4687 22.9822 54.4705 23.0418C54.4724 23.1014 54.4958 23.1584 54.5364 23.202C54.558 23.2269 54.5843 23.2472 54.6138 23.2618C54.6433 23.2764 54.6754 23.285 54.7082 23.2872C54.7411 23.2893 54.774 23.2849 54.8051 23.2743C54.8363 23.2636 54.865 23.2469 54.8896 23.2251C55.0798 23.0502 55.2676 22.8695 55.4408 22.6935C55.4867 22.6453 55.5115 22.5808 55.51 22.5142C55.5085 22.4477 55.4808 22.3844 55.4328 22.3383C55.4093 22.3153 55.3814 22.2973 55.3509 22.2853C55.3203 22.2732 55.2877 22.2674 55.2548 22.2682C55.222 22.2689 55.1897 22.2763 55.1597 22.2897C55.1297 22.3032 55.1028 22.3225 55.0804 22.3465C54.9101 22.5198 54.7343 22.6928 54.5531 22.8597C54.5431 22.8641 54.5341 22.8702 54.5264 22.8779Z" fill="black"/>
<path d="M55.8134 19.8773C55.8051 19.8875 55.7978 19.8984 55.7914 19.9099C55.6697 20.1233 55.5396 20.3333 55.4045 20.5345C55.3846 20.5624 55.3706 20.5941 55.3633 20.6275C55.356 20.661 55.3557 20.6956 55.3622 20.7293C55.3688 20.7629 55.3822 20.7948 55.4015 20.8231C55.4208 20.8514 55.4457 20.8755 55.4747 20.8938C55.5019 20.9124 55.5326 20.9253 55.5649 20.9319C55.5972 20.9386 55.6304 20.9387 55.6628 20.9324C55.6951 20.926 55.7259 20.9134 55.7533 20.895C55.7807 20.8767 55.8042 20.8532 55.8225 20.8257C55.964 20.6136 56.1005 20.3927 56.2256 20.171C56.2538 20.1164 56.261 20.0533 56.246 19.9937C56.2309 19.9341 56.1946 19.8821 56.1439 19.8474C56.0932 19.8127 56.0315 19.7977 55.9705 19.8053C55.9095 19.8129 55.8534 19.8425 55.8127 19.8886L55.8134 19.8773Z" fill="black"/>
<path d="M55.0432 21.7171C55.0149 21.7691 55.0058 21.8295 55.0176 21.8876C55.0294 21.9457 55.0613 21.9978 55.1077 22.0347C55.1541 22.0716 55.212 22.091 55.2712 22.0894C55.3305 22.0879 55.3873 22.0655 55.4317 22.0262C55.6006 21.8301 55.7613 21.6277 55.9136 21.4248C55.9479 21.3726 55.9612 21.3094 55.951 21.2478C55.9409 21.1861 55.9079 21.1306 55.8587 21.0921C55.8054 21.0531 55.7389 21.0366 55.6736 21.0461C55.6082 21.0556 55.5492 21.0904 55.5092 21.143C55.3631 21.3378 55.2003 21.5287 55.0463 21.7144C55.0489 21.7174 55.0461 21.7172 55.0432 21.7171Z" fill="black"/>
<path d="M30.5661 29.6651C30.5661 29.6651 39.3075 30.9054 45.8745 25.9425C52.4414 20.9796 54.3772 12.2353 53.8904 11.3891C53.4037 10.5429 54.6902 12.6132 54.6902 12.6132C54.6902 12.6132 53.8358 21.3544 46.6853 26.563C39.5347 31.7716 31.3426 30.55 31.3426 30.55L30.5661 29.6651Z" fill="black"/>
<path opacity="0.1" d="M37.7127 14.0844C37.7127 14.0844 50.42 23.0383 51.3473 31.2629L49.7283 32.4172C49.7283 32.4172 38.2033 13.3503 37.2889 14.0567L37.7127 14.0844Z" fill="black"/>
<path opacity="0.1" d="M38.8151 21.0974L38.6399 21.086C39.013 21.2834 40.0667 22.9215 41.2961 24.9966L41.567 25.4542L42.0787 26.3105L42.3323 26.7726L42.8881 27.734C43.0383 27.9991 43.1884 28.2643 43.3357 28.5293C43.7505 29.2602 44.1519 29.9788 44.5251 30.653L44.7776 31.132L45.1108 31.7213L45.2732 32.0157C45.8129 33.0072 46.2331 33.7866 46.4876 34.2346C46.9318 34.0966 47.3685 33.9356 47.7961 33.7525C47.6914 32.8286 47.4501 31.9253 47.08 31.0723C47.0165 30.9149 46.9472 30.76 46.8723 30.6019C46.7779 30.3971 46.6778 30.1919 46.5718 29.9892C46.491 29.8364 46.4066 29.6946 46.318 29.53C45.944 28.8742 45.5345 28.2393 45.0914 27.6281C44.9095 27.3722 44.7187 27.1213 44.5276 26.8762C44.2447 26.5143 43.9585 26.1608 43.6629 25.8208C43.5551 25.6889 43.4416 25.5595 43.3278 25.4329C43.1244 25.2011 42.9205 24.9778 42.7192 24.7575L42.3687 24.3884C41.2561 23.2163 40.0691 22.117 38.8151 21.0974Z" fill="black"/>
<path opacity="0.1" d="M38.5327 21.0791L38.6401 21.0861C38.5935 21.0604 38.5511 21.0576 38.5327 21.0791Z" fill="black"/>
<path d="M37.0137 11.6448C36.7857 10.8969 37.5104 10.0132 38.6323 9.6712C39.7542 9.32915 40.8486 9.65821 41.0766 10.4062C41.3047 11.1541 40.58 12.0377 39.4581 12.3798C38.3361 12.7218 37.2418 12.3928 37.0137 11.6448Z" fill="#4870EC"/>
<path d="M30.4696 19.4477C29.445 18.6009 29.8259 16.4485 31.3205 14.6404C32.815 12.8322 34.8571 12.053 35.8817 12.8999C36.9064 13.7467 36.5254 15.8991 35.0309 17.7072C33.5364 19.5154 31.4943 20.2946 30.4696 19.4477Z" fill="#4870EC"/>
</g>
<path d="M76.4413 39.572C74.4725 39.572 72.9373 38.986 71.8358 37.8141C70.742 36.6423 70.1952 34.9665 70.1952 32.7868C70.1952 30.6774 70.7694 29.0407 71.9178 27.8766C73.0741 26.7126 74.5936 26.1306 76.4764 26.1306C77.9842 26.1306 79.2577 26.4548 80.2967 27.1032L79.5702 29.2946C78.5077 28.7399 77.5194 28.4626 76.6053 28.4626C75.5663 28.4626 74.7459 28.8337 74.1444 29.5759C73.5506 30.3181 73.2538 31.4001 73.2538 32.822C73.2538 34.2595 73.5467 35.3532 74.1327 36.1032C74.7264 36.8532 75.5623 37.2282 76.6405 37.2282C77.7655 37.2282 78.8475 36.8962 79.8866 36.2321L80.1795 38.5641C79.6405 38.9235 79.0819 39.1813 78.5038 39.3376C77.9256 39.4938 77.2381 39.572 76.4413 39.572ZM82.6288 39.3259V26.447H85.2069L85.6053 28.4157C86.4491 27.0641 87.6717 26.3884 89.2733 26.3884C89.6092 26.3884 89.8827 26.404 90.0936 26.4352L90.0467 29.0016C89.7342 28.9548 89.41 28.9313 89.0741 28.9313C87.9413 28.9313 87.0936 29.2321 86.5311 29.8337C85.9764 30.4352 85.6991 31.2712 85.6991 32.3415V39.3259H82.6288ZM92.0389 39.3259V26.447H95.1092V39.3259H92.0389ZM92.0389 24.572V21.947H95.1209V24.572H92.0389ZM98.3202 39.3259V21.7009L101.39 21.5016V29.4118L101.32 32.0134C101.328 32.0056 101.406 31.9274 101.555 31.779C101.711 31.6306 101.797 31.5485 101.812 31.5329C102.242 31.0251 102.707 30.5016 103.207 29.9626C103.715 29.4235 104.351 28.7634 105.117 27.9821C105.89 27.2009 106.394 26.6891 106.629 26.447H110.285L104.988 31.9313L110.625 39.3259H106.91L102.668 33.4782L101.39 34.486V39.3259H98.3202ZM113.39 39.5368C112.883 39.5368 112.453 39.361 112.101 39.0095C111.75 38.6579 111.574 38.2399 111.574 37.7556C111.574 37.2634 111.746 36.8376 112.09 36.4782C112.441 36.1188 112.875 35.9391 113.39 35.9391C113.89 35.9391 114.312 36.1188 114.656 36.4782C115 36.8376 115.172 37.2634 115.172 37.7556C115.172 38.2399 115 38.6579 114.656 39.0095C114.312 39.361 113.89 39.5368 113.39 39.5368ZM122.144 39.5016C121.262 39.5016 120.527 39.4001 119.941 39.197C119.363 38.986 118.906 38.654 118.57 38.2009C118.234 37.7477 118 37.2087 117.867 36.5837C117.734 35.9587 117.668 35.1813 117.668 34.2516V21.7009L120.738 21.5016V34.1931C120.738 35.3493 120.875 36.1345 121.148 36.5485C121.422 36.9548 121.953 37.1579 122.742 37.1579C123.133 37.1579 123.629 37.1149 124.23 37.029L124.312 39.2204C124.305 39.2204 124.207 39.2399 124.019 39.279C123.84 39.3181 123.664 39.3493 123.492 39.3727C123.328 39.404 123.117 39.4313 122.859 39.4548C122.601 39.486 122.363 39.5016 122.144 39.5016ZM125.906 39.3259V26.447H128.976V39.3259H125.906ZM125.906 24.572V21.947H128.988V24.572H125.906ZM132.187 39.3259V26.447H134.66L135 28.0759C136.312 26.779 137.769 26.1306 139.371 26.1306C140.871 26.1306 141.992 26.5641 142.734 27.4313C143.484 28.2907 143.859 29.5407 143.859 31.1813V39.3259H140.777V31.5563C140.769 30.5173 140.601 29.7399 140.273 29.2243C139.945 28.7087 139.355 28.4509 138.504 28.4509C137.84 28.4509 137.23 28.6227 136.676 28.9665C136.129 29.3024 135.73 29.7282 135.48 30.2438C135.332 30.8532 135.258 31.7907 135.258 33.0563V39.3259H132.187ZM146.883 39.3259V21.7009L149.953 21.5016V29.4118L149.883 32.0134C149.89 32.0056 149.969 31.9274 150.117 31.779C150.273 31.6306 150.359 31.5485 150.375 31.5329C150.805 31.0251 151.269 30.5016 151.769 29.9626C152.277 29.4235 152.914 28.7634 153.68 27.9821C154.453 27.2009 154.957 26.6891 155.191 26.447H158.848L153.551 31.9313L159.187 39.3259H155.473L151.23 33.4782L149.953 34.486V39.3259H146.883Z" fill="white"/>
<defs>
<clipPath id="clip0_1_388">
<rect width="29.676" height="29.676" fill="white" transform="matrix(-0.997876 -0.0651441 -0.0651441 0.997876 57.6764 6.28174)"/>
</clipPath>
</defs>
</svg>
